<svg width="1440" height="536" viewBox="0 0 1440 536" fill="none" xmlns="http://www.w3.org/2000/svg">
<rect x="-1" width="1440" height="535" fill="#F1E1E2"/>
<rect x="-1" width="1442" height="535" fill="#FD5159"/>
<path d="M700.811 243.235C657.585 277.129 585.413 398.665 487 535H1441V0H1145.92C911.876 127.599 872.155 169.799 700.811 243.235Z" fill="#101042"/>
<path d="M1156.49 307.251L1164.45 276.044L1196.88 284.305L1204.83 321.936L1184.64 327.749L1156.49 307.251Z" fill="#7E396D" stroke="#7E396D" stroke-width="0.611898"/>
<path d="M1113.71 309.993C1108.24 302.407 1114.91 275.023 1119.48 263.502L1146.09 257.383L1171.39 277.877C1170.6 287.901 1168.48 292.445 1163.24 299.593C1172.14 302.866 1176.15 306.407 1181.17 316.416C1191.92 313.052 1204.96 316.416 1207.24 316.416C1217.67 329.874 1209.19 346.697 1203.65 353.426C1197.03 353.528 1180.58 353.365 1167.81 351.897C1151.84 350.062 1120.55 319.475 1113.71 309.993Z" fill="#7E396D" stroke="#B1549A" stroke-width="0.611898"/>
<path d="M840.446 326.216C804.038 419.837 851.764 510.398 871.959 526.919C928.865 528.551 1045.25 531.325 1055.53 529.367C1076.61 498.041 1078.7 477.264 1071.44 436.664L892.764 360.483C895.211 330.807 904.696 289.502 892.764 256.154C883.759 230.988 866.86 225.253 858.497 225.865C854.865 267.02 851.566 289.372 840.446 326.216Z" fill="#B6599E"/>
<path d="M896.916 459.794L861.114 121.097C860.504 115.322 864.482 110.065 870.206 109.083L1032.82 81.2035C1038.88 80.1652 1044.61 84.2834 1045.56 90.3541L1097.98 424.823C1099.21 432.702 1093.93 440.126 1086.09 441.547L914.138 472.7C905.737 474.222 897.814 468.284 896.916 459.794Z" fill="#733462"/>
<path d="M904.529 450.609L853.147 120.745C852.214 114.754 856.298 109.136 862.284 108.175L1033.02 80.7591C1039.03 79.7943 1044.68 83.8857 1045.64 89.8953L1097.92 416.9C1099.18 424.814 1093.87 432.28 1085.98 433.679L921.602 462.809C913.498 464.245 905.796 458.741 904.529 450.609Z" fill="#EAC5BC" stroke="#FFE8AE" stroke-width="0.611898"/>
<path d="M913.829 423.768L872.919 139.232L1034.47 115.152L1079.66 397.553L913.829 423.768Z" fill="#F7F0F8" stroke="#FFF9CE" stroke-width="0.611898"/>
<path d="M1039.93 153.974L968.028 161.928L1007.8 306.642L1064.4 300.829L1039.93 153.974Z" fill="#F9535D" stroke="#F9535D" stroke-width="0.611898"/>
<path d="M1034.17 115.151L1038.95 139.943L876.201 164.326L872.916 139.538L1034.17 115.151Z" fill="#D8D6FD" stroke="#F7F7FF" stroke-width="0.611898"/>
<g filter="url(#filter0_d)">
<circle cx="962.213" cy="377.01" r="23.5581" fill="#DFDEFF"/>
<circle cx="962.213" cy="377.01" r="23.2521" stroke="#DFDEFF" stroke-width="0.611898"/>
</g>
<g filter="url(#filter1_d)">
<circle cx="1022.79" cy="367.828" r="23.5581" fill="#DFDEFF"/>
<circle cx="1022.79" cy="367.828" r="23.2521" stroke="#DFDEFF" stroke-width="0.611898"/>
</g>
<path d="M952.496 392.418L971.137 362.624" stroke="#0F9AB9" stroke-width="2.44759" stroke-linecap="round"/>
<path d="M976.713 386.843L946.919 368.202" stroke="#0F9AB9" stroke-width="2.44759" stroke-linecap="round"/>
<path d="M1018.51 427.795C1018.51 435.16 1012.01 441.256 1003.83 441.256C995.644 441.256 989.141 435.16 989.141 427.795C989.141 420.429 995.644 414.333 1003.83 414.333C1012.01 414.333 1018.51 420.429 1018.51 427.795Z" stroke="white" stroke-width="1.83569"/>
<path d="M1080.62 106.24C1066.26 97.6287 1054.41 116.133 1052.77 123.679C1052.45 144.548 1053.51 157.131 1059.51 174.161C1080.62 152.438 1093.47 113.945 1080.62 106.24Z" fill="#B6599E"/>
<path d="M1048.18 227.394C1045.98 234.003 1049.31 243.304 1050.94 244.833L1087.65 226.783C1088.77 225.457 1091.04 222.499 1091.63 213.933C1092.12 206.835 1081.94 199.961 1077.56 197.411C1065.01 192.21 1050.39 220.786 1048.18 227.394Z" fill="#B6599E"/>
<path d="M1064.4 304.799C1061.71 298.436 1068.38 283.587 1072.05 276.958L1085.82 266.556C1086.94 267.372 1090.16 267.535 1097.75 271.451C1105.86 275.636 1098.11 301.9 1089.49 314.811C1091.61 313.137 1093.71 311.817 1096.22 310.613C1104.79 304.799 1115.86 318.812 1116.11 330.805C1116.35 342.798 1097.65 358.544 1087.96 365.377C1084.29 362.114 1076.64 352.895 1075.41 342.125C1074.19 331.356 1078.37 324.992 1080.62 323.156C1081.05 322.715 1081.47 322.288 1081.88 321.875C1081.76 321.9 1081.65 321.919 1081.53 321.933C1071.44 323.156 1067.77 312.754 1064.4 304.799Z" fill="#B6599E"/>
<path d="M1080.62 106.24C1066.26 97.6287 1054.41 116.133 1052.77 123.679C1052.45 144.548 1053.51 157.131 1059.51 174.161C1080.62 152.438 1093.47 113.945 1080.62 106.24Z" stroke="#984884" stroke-width="0.611898"/>
<path d="M1048.18 227.394C1045.98 234.003 1049.31 243.304 1050.94 244.833L1087.65 226.783C1088.77 225.457 1091.04 222.499 1091.63 213.933C1092.12 206.835 1081.94 199.961 1077.56 197.411C1065.01 192.21 1050.39 220.786 1048.18 227.394Z" stroke="#984884" stroke-width="0.611898"/>
<path d="M1064.4 304.799C1061.71 298.436 1068.38 283.587 1072.05 276.958L1085.82 266.556C1086.94 267.372 1090.16 267.535 1097.75 271.451C1105.86 275.636 1098.11 301.9 1089.49 314.811C1091.61 313.137 1093.71 311.817 1096.22 310.613C1104.79 304.799 1115.86 318.812 1116.11 330.805C1116.35 342.798 1097.65 358.544 1087.96 365.377C1084.29 362.114 1076.64 352.895 1075.41 342.125C1074.19 331.356 1078.37 324.992 1080.62 323.156C1081.05 322.715 1081.47 322.288 1081.88 321.875C1081.76 321.9 1081.65 321.919 1081.53 321.933C1071.44 323.156 1067.77 312.754 1064.4 304.799Z" stroke="#984884" stroke-width="0.611898"/>
<path d="M968.679 268.08C968.404 255.291 992.457 239.92 999.22 231.013L1024.94 226.355C1029.28 228.649 1040.52 236.178 1054 241.167L1064.09 305.417L970.159 322.287C969.146 308.404 968.955 280.886 968.679 268.08Z" fill="#393CAE" stroke="#2A2C91" stroke-width="0.611898"/>
<path d="M1024.72 296.853C1030.66 258.697 1031.38 242.145 1024.97 225.981L998.787 231.331C996.492 257.545 1005.31 271.727 1024.72 296.853Z" fill="#E3C0B0" stroke="#E3C0B0" stroke-width="0.611898"/>
<path d="M1024.5 226.68C1021.95 223.856 1021.86 220.401 1022.43 213.29L999.202 219.01L999.569 231.061L1014.34 244.915L1024.5 226.68Z" fill="#FA88A2" stroke="#FA88A2" stroke-width="0.611898"/>
<path d="M999.541 230.759L999.223 223.411C1004.15 227.298 1015.36 229.389 1020.96 228.925C1019.23 233.275 1007.5 234.738 999.541 230.759Z" fill="#D5637D" stroke="#D4637D" stroke-width="0.611898"/>
<path d="M1012.54 250.304L1007.88 248.595C1011.84 239.543 1014.83 239.529 1021.08 244.997L1018.22 249.89L1031.6 292.832L1025.13 299.525L1015.53 295.322L1012.54 250.304Z" fill="#262776" stroke="#262776" stroke-width="0.611898"/>
<path d="M1004.44 257.683C994.622 241.398 993.003 236.131 998.695 232.057L1012.09 243.304C1009.3 247.588 1004.64 256.073 1004.44 257.683Z" fill="#C09C8B"/>
<path d="M1024.55 226.3L1015.73 242.775C1019.07 246.055 1026.8 252.677 1027.69 252.788C1029.73 235.728 1028.27 230.354 1024.55 226.3Z" fill="#C09C8B"/>
<path d="M1004.09 254.879C994.122 239.816 993.141 235.017 998.784 231.331L1012.54 241.306C1009.8 245.215 1004.27 253.402 1004.09 254.879Z" fill="#E3C0B0"/>
<path d="M1024.55 226.303L1015.91 241.353C1019.28 244.401 1026.24 250.525 1027.13 250.636C1028.99 234.98 1028.3 230.067 1024.55 226.303Z" fill="#E3C0B0"/>
<path d="M1004.09 254.879C994.122 239.816 993.141 235.017 998.784 231.331L1012.54 241.306C1009.8 245.215 1004.27 253.402 1004.09 254.879Z" stroke="#E3C0B0" stroke-width="0.611898"/>
<path d="M1024.55 226.303L1015.91 241.353C1019.28 244.401 1026.24 250.525 1027.13 250.636C1028.99 234.98 1028.3 230.067 1024.55 226.303Z" stroke="#E3C0B0" stroke-width="0.611898"/>
<path d="M992.369 237.657C990.09 240.873 985.69 247.85 986.318 250.029L993.15 249.384C991.411 251.292 987.876 255.552 987.654 257.324M990.747 259.587C1000.77 278.124 1007.23 287.715 1023.15 300.409M1027.64 228.568C1031.09 230 1038.27 234.176 1039.42 239.421L1034.84 242.975L1042.6 243.946C1038.02 271.562 1034.5 285.818 1024.63 306.596M988.57 291.953C988.431 294.061 988.837 299.414 991.569 303.958C994.301 308.502 994.521 315.332 994.29 318.179M1059.03 289.521C1058.24 291.798 1056.87 297.203 1057.64 300.601C1058.42 304 1057.41 306.449 1056.81 307.25" stroke="#5F5FF3" stroke-width="0.611898" stroke-linecap="round"/>
<path d="M998.011 214.241C994.584 212.283 994.339 207.511 994.645 205.369V198.332L1001.07 184.564L1024.02 187.93L1026.77 201.392C1029.71 205.308 1028.4 208.734 1027.38 209.958V217.301C1024.63 229.233 1017.59 231.375 1014.84 231.987C1012.08 232.598 1003.82 229.539 1001.07 226.785C998.866 224.583 998.112 217.505 998.011 214.241Z" fill="#FA88A2" stroke="#FA88A2" stroke-width="0.611898"/>
<path d="M995.873 194.661C996.852 199.311 995.465 203.737 994.649 205.369C991.813 196.243 990.556 191.306 995.873 186.706C996.482 185.788 999.236 175.998 1009.33 177.222C1017.41 178.201 1021.47 183.137 1022.49 185.482C1026.72 189.041 1028.45 191.691 1026.77 201.392C1024.65 200.72 1023.75 197.46 1022.49 188.542C1012.25 194.388 1006.38 194.707 995.873 194.661Z" fill="#43363D"/>
<path d="M1012.12 206.595C1015.94 214.497 1017.29 220.362 1013 218.833" stroke="#E84072" stroke-width="0.611898" stroke-linecap="round"/>
<g filter="url(#filter2_d)">
<path d="M1060.43 281.858L955.18 313.983L956.709 339.989L1066.24 313.983L1060.43 281.858Z" fill="#D3D4FF"/>
</g>
<path d="M1010.87 221.998C1014.16 222.601 1016.08 223.155 1018.01 220.294" stroke="#E84072" stroke-width="0.611898" stroke-linecap="round"/>
<path d="M987.611 313.371L1030.14 300.215M988.529 320.407L1052.17 300.215" stroke="#2D2E99" stroke-width="3.05949" stroke-linecap="square"/>
<path d="M961.568 160.546L880.22 183.951L901.33 330.501L1002.58 300.124C1005.81 299.157 1007.65 295.768 1006.7 292.538L969.13 164.701C968.181 161.472 964.802 159.615 961.568 160.546Z" fill="#5F5FF3" stroke="#5F5FF3" stroke-width="0.611898"/>
<path d="M901.338 285.222C899.807 274.819 917.854 259.828 922.46 251.873L942.958 245.448C946.731 246.876 957.137 250.711 968.641 253.403C981.797 256.482 992.42 287.057 997.111 302.355L908.08 329.278C905.837 318.06 902.871 295.637 901.338 285.222Z" fill="#2A2C91" stroke="#2A2C91" stroke-width="0.611898"/>
<path d="M917.549 257.99C916.019 260.845 913.143 266.985 913.878 268.698L919.384 267.474C918.16 269.208 915.712 273.042 915.712 274.511M918.466 276.041C928.53 290.135 934.783 297.296 949.061 306.024M945.389 246.976C948.347 247.791 954.629 250.463 956.098 254.624L952.732 257.99H959.157C958.242 280.979 956.83 292.964 950.897 310.919M919.996 302.658C920.098 304.392 920.975 308.716 923.667 312.143C926.359 315.569 927.237 321.117 927.339 323.463M977.208 293.48C976.8 295.417 976.229 299.966 977.208 302.658C978.187 305.351 977.616 307.451 977.208 308.165" stroke="#6B6DD9" stroke-width="0.856657" stroke-linecap="round"/>
<path d="M942.636 245.753C940.266 243.711 939.843 240.902 939.576 235.045L921.219 242.082L922.749 251.872L936.211 261.662L942.636 245.753Z" fill="#984884" stroke="#984884" stroke-width="0.611898"/>
<path d="M935.295 266.252L931.317 265.334C933.627 257.547 936.065 257.23 941.72 261.051L939.884 265.334L955.181 298.988L950.592 305.107L942.331 302.66L935.295 266.252Z" fill="#262776" stroke="#262776" stroke-width="0.611898"/>
<path d="M929.479 272.372C918.775 264.111 919.004 256.077 923.161 252.279L934.679 258.604C932.874 262.281 929.479 271.075 929.479 272.372Z" fill="#4541B1"/>
<path d="M943.321 245.143L936.821 258.91C939.83 261.181 947.113 266.253 947.835 266.253C947.756 252.514 946.713 247.99 943.321 245.143Z" fill="#4541B1"/>
<path d="M928.87 270.842C919.204 259.575 917.913 255.761 922.14 252.179L934.375 258.91C932.54 262.377 928.87 269.618 928.87 270.842Z" fill="#6D68E7"/>
<path d="M942.636 245.448L937.129 258.604C940.188 260.746 946.491 265.029 947.225 265.029C947.145 252.071 946.084 248.134 942.636 245.448Z" fill="#6D68E7"/>
<path d="M928.87 270.842C919.204 259.575 917.913 255.761 922.14 252.179L934.375 258.91C932.54 262.377 928.87 269.618 928.87 270.842Z" stroke="#6D68E7" stroke-width="0.611898"/>
<path d="M942.636 245.448L937.129 258.604C940.188 260.746 946.491 265.029 947.225 265.029C947.145 252.071 946.084 248.134 942.636 245.448Z" stroke="#6D68E7" stroke-width="0.611898"/>
<path d="M922.134 248.508L920.91 241.777C926.456 244.714 931.707 242.933 937.126 241.471C936.208 246.06 925.601 247.998 922.134 248.508Z" fill="#7B386A" stroke="#7B386A" stroke-width="0.611898"/>
<path d="M923.054 243.303C919.605 241.851 915.103 233.526 912.091 226.533C910.287 222.343 909.644 217.445 912.183 213.655C917.637 205.513 929.393 202.81 934.068 208.12C936.898 211.335 940.187 227.393 939.269 236.572C938.351 245.75 928.867 245.75 923.054 243.303Z" fill="#984884" stroke="#984884" stroke-width="0.611898"/>
<path d="M925.503 223.726C929.226 228.747 930.988 231.414 927.951 233.21" stroke="black" stroke-width="0.611898" stroke-linecap="round"/>
<path d="M889.723 216.09C891.436 238.608 911.853 243.625 921.847 243.319C915.613 235.577 913.382 230.596 910.51 220.985L910.204 219.139C931.253 213.264 940.493 185.79 934.068 182.426C911.411 181.508 888.009 193.572 889.723 216.09Z" fill="#43363D" stroke="#FFF4F4" stroke-width="0.0611898"/>
<path d="M926.42 237.494C928.795 237.63 930.205 237.85 931.315 235.658" stroke="black" stroke-width="0.611898" stroke-linecap="round"/>
<path d="M935.904 187.321C930.519 206.657 917.547 217.61 911.734 220.67C918.738 218.288 922.76 216.452 931.315 207.208C936.699 212.523 938.349 219.36 939.575 235.661C945.388 230.766 962.183 202.137 935.904 187.321Z" fill="#43363D" stroke="#FFF4F4" stroke-width="0.0611898"/>
<g filter="url(#filter3_d)">
<path d="M1005.66 298.377L901.028 331.113L905.006 357.425L1013.01 322.547L1005.66 298.377Z" fill="#D3D4FF"/>
</g>
<path d="M904.391 340.293L946.918 327.137M905.309 347.329L968.946 327.137" stroke="#2D2E99" stroke-width="3.05949" stroke-linecap="square"/>
<path d="M839.367 326.566C802.96 420.186 850.306 518.48 870.5 535.001C928.5 535.001 1041.5 534.501 1054.5 534.501C1075.58 503.175 1077.62 477.614 1070.36 437.014L884.811 492.347L891.685 360.832C894.132 331.156 903.617 289.852 891.685 256.504C882.681 231.338 865.781 225.603 857.419 226.215C853.787 267.37 850.487 289.722 839.367 326.566Z" fill="#B6599E" stroke="#B6599E" stroke-width="0.611898"/>
<path d="M1054.92 236.575L1052.58 233.406C1051.4 231.807 1051.31 229.654 1052.34 227.957L1053.85 225.484C1054.47 224.467 1055.73 224.04 1056.83 224.481C1062.19 226.624 1065.32 228.333 1066.24 234.434" stroke="#DEBBB4" stroke-width="1.2238" stroke-linecap="round" stroke-linejoin="round"/>
<path d="M968.028 280.113C988.22 296.635 1034.11 328.882 1056.14 325.7C1060.12 303.978 1016.06 278.278 968.028 280.113Z" fill="url(#paint0_radial)"/>
<path d="M863.712 253.297C867.362 239.772 861.31 229.58 857.827 226.174L854.263 263.331C855.892 265.622 860.062 266.823 863.712 253.297Z" stroke="#DEBBB4" stroke-width="1.2238" stroke-linecap="square" stroke-linejoin="round"/>
<path d="M974.455 265.642C962.217 266.865 964.257 275.126 966.807 279.103C979.656 295.932 1022.92 297.768 1040.54 287.977C1058.16 278.187 1116.01 265.337 1142.73 260.136C1168.02 274.924 1215.79 311.107 1204.53 337.541C1190.45 370.584 1175.77 371.807 1134.16 361.711C1100.87 353.634 1074.19 359.569 1065.02 363.547C1042.68 371.501 1039.79 389.246 1052.47 389.246C1067.16 389.246 1098.06 401.484 1136.61 414.64C1217.68 439.422 1322.01 390.47 1354.75 380.374C1380.94 372.297 1416.94 377.48 1440.5 414.5C1440.7 358.919 1439.5 249 1439.5 236.5C1439.5 226.98 1360.46 194.662 1323.54 179.671C1283.16 158.439 1260.14 145.828 1238.79 159.783C1219.05 156.452 1209.12 159.761 1193.21 173.857C1185.25 176.305 1166.22 183.219 1153.74 191.296C1138.14 201.392 1098.36 215.772 1047.58 240.554C996.789 265.336 989.753 264.112 974.455 265.642Z" fill="#B6599E" stroke="#B6599E" stroke-width="0.611898"/>
<path d="M1052.12 123.374C1049.61 131.329 1046.98 175.018 1059.46 174.773C1053.4 152.819 1052.24 141.825 1052.12 123.374Z" fill="#323295" stroke="#323295" stroke-width="1.2238" stroke-linecap="square" stroke-linejoin="round"/>
<path d="M969.866 268.703L971.09 273.905C977.821 273.293 991.711 270.906 993.424 266.256C993.73 265.746 993.791 264.604 991.588 264.114" stroke="#DEBBB4" stroke-width="1.2238" stroke-linecap="round" stroke-linejoin="round"/>
<path d="M1069.3 389.85L1071.72 381.259C1065.03 380.305 1050.96 379.429 1048.22 383.56C1047.81 383.986 1047.99 386.427 1050.02 387.41" stroke="#DEBBB4" stroke-width="1.2238" stroke-linecap="round" stroke-linejoin="round"/>
<path d="M1081.53 314.596C1078.45 307.828 1076.5 305.171 1071.44 301.135L1073.15 297.284C1074.24 294.838 1077.14 293.637 1079.39 295.084C1082.78 297.263 1084.81 300.012 1086.68 304.657C1087.33 306.25 1086.98 308.061 1085.88 309.381L1081.53 314.596Z" stroke="#DEBBB4" stroke-width="1.2238" stroke-linecap="square" stroke-linejoin="round"/>
<path d="M1091.39 353.993C1090.94 346.9 1086.96 341.964 1083.74 336.553L1085.55 334.96C1087.46 333.272 1090.4 333.301 1092.05 335.251C1094.97 338.702 1096.65 342.229 1096.88 347.416C1096.95 348.871 1096.23 350.232 1095.08 351.125L1091.39 353.993Z" stroke="#DEBBB4" stroke-width="1.2238" stroke-linecap="square" stroke-linejoin="round"/>
<rect x="935.937" y="111.999" width="29.983" height="1.83569" rx="0.917847" transform="rotate(-6.85458 935.937 111.999)" fill="#F7F0F8" stroke="#FFE7AE" stroke-width="0.611898"/>
<path d="M1025.94 380.818L1023.53 379.571C1014.97 375.168 1009.32 372.252 1007.97 367.209C1006.86 363.077 1009.24 358.988 1013.36 357.886C1015.68 357.263 1018.21 357.749 1020.12 359.057C1021.12 356.969 1023.07 355.288 1025.39 354.665C1029.51 353.563 1033.61 355.921 1034.72 360.053C1036.07 365.095 1032.62 370.445 1027.41 378.533L1025.94 380.818Z" fill="#F9535D"/>
<defs>
<filter id="filter0_d" x="937.531" y="353.452" width="49.3648" height="49.3648" filterUnits="userSpaceOnUse" color-interpolation-filters="sRGB">
<feFlood flood-opacity="0" result="BackgroundImageFix"/>
<feColorMatrix in="SourceAlpha" type="matrix" values="0 0 0 0 0 0 0 0 0 0 0 0 0 0 0 0 0 0 127 0" result="hardAlpha"/>
<feOffset dy="1.12433"/>
<feGaussianBlur stdDeviation="0.562163"/>
<feColorMatrix type="matrix" values="0 0 0 0 0.556439 0 0 0 0 0.548437 0 0 0 0 0.8125 0 0 0 1 0"/>
<feBlend mode="normal" in2="BackgroundImageFix" result="effect1_dropShadow"/>
<feBlend mode="normal" in="SourceGraphic" in2="effect1_dropShadow" result="shape"/>
</filter>
<filter id="filter1_d" x="998.109" y="344.27" width="49.3648" height="49.3648" filterUnits="userSpaceOnUse" color-interpolation-filters="sRGB">
<feFlood flood-opacity="0" result="BackgroundImageFix"/>
<feColorMatrix in="SourceAlpha" type="matrix" values="0 0 0 0 0 0 0 0 0 0 0 0 0 0 0 0 0 0 127 0" result="hardAlpha"/>
<feOffset dy="1.12433"/>
<feGaussianBlur stdDeviation="0.562163"/>
<feColorMatrix type="matrix" values="0 0 0 0 0.556439 0 0 0 0 0.548437 0 0 0 0 0.8125 0 0 0 1 0"/>
<feBlend mode="normal" in2="BackgroundImageFix" result="effect1_dropShadow"/>
<feBlend mode="normal" in="SourceGraphic" in2="effect1_dropShadow" result="shape"/>
</filter>
<filter id="filter2_d" x="954.568" y="281.858" width="112.283" height="59.3541" filterUnits="userSpaceOnUse" color-interpolation-filters="sRGB">
<feFlood flood-opacity="0" result="BackgroundImageFix"/>
<feColorMatrix in="SourceAlpha" type="matrix" values="0 0 0 0 0 0 0 0 0 0 0 0 0 0 0 0 0 0 127 0" result="hardAlpha"/>
<feOffset dy="0.611898"/>
<feGaussianBlur stdDeviation="0.305949"/>
<feColorMatrix type="matrix" values="0 0 0 0 0.44566 0 0 0 0 0.451629 0 0 0 0 0.708333 0 0 0 1 0"/>
<feBlend mode="normal" in2="BackgroundImageFix" result="effect1_dropShadow"/>
<feBlend mode="normal" in="SourceGraphic" in2="effect1_dropShadow" result="shape"/>
</filter>
<filter id="filter3_d" x="900.417" y="298.377" width="113.201" height="60.2719" filterUnits="userSpaceOnUse" color-interpolation-filters="sRGB">
<feFlood flood-opacity="0" result="BackgroundImageFix"/>
<feColorMatrix in="SourceAlpha" type="matrix" values="0 0 0 0 0 0 0 0 0 0 0 0 0 0 0 0 0 0 127 0" result="hardAlpha"/>
<feOffset dy="0.611898"/>
<feGaussianBlur stdDeviation="0.305949"/>
<feColorMatrix type="matrix" values="0 0 0 0 0.479167 0 0 0 0 0.485701 0 0 0 0 0.766667 0 0 0 1 0"/>
<feBlend mode="normal" in2="BackgroundImageFix" result="effect1_dropShadow"/>
<feBlend mode="normal" in="SourceGraphic" in2="effect1_dropShadow" result="shape"/>
</filter>
<radialGradient id="paint0_radial" cx="0" cy="0" r="1" gradientUnits="userSpaceOnUse" gradientTransform="translate(971.699 282.162) rotate(25.8664) scale(78.5431 151.21)">
<stop stop-color="#2A2C91" stop-opacity="0.72"/>
<stop offset="1" stop-color="#4A4DBE" stop-opacity="0"/>
</radialGradient>
</defs>
</svg>
