<svg width="642" height="358" viewBox="0 0 642 358" fill="none" xmlns="http://www.w3.org/2000/svg">
<g filter="url(#filter0_d)">
<rect x="22" y="16" width="601.857" height="318" fill="#FAFCFF"/>
<path d="M55.4724 92.5154C56.6507 92.5154 57.6844 92.7457 58.5734 93.2063C59.4732 93.6669 60.1641 94.3257 60.6461 95.1826C61.1389 96.0288 61.3852 97.0143 61.3852 98.139C61.3852 99.2637 61.1389 100.249 60.6461 101.095C60.1641 101.931 59.4732 102.579 58.5734 103.04C57.6844 103.5 56.6507 103.73 55.4724 103.73H51.552V92.5154H55.4724ZM55.3921 101.818C56.5704 101.818 57.4809 101.497 58.1236 100.854C58.7663 100.212 59.0876 99.3066 59.0876 98.139C59.0876 96.9715 58.7663 96.061 58.1236 95.4076C57.4809 94.7435 56.5704 94.4114 55.3921 94.4114H53.8014V101.818H55.3921ZM62.4906 99.2477C62.4906 98.3479 62.6674 97.5499 63.0208 96.8536C63.385 96.1574 63.8724 95.6218 64.483 95.2469C65.1042 94.872 65.7951 94.6845 66.5557 94.6845C67.2198 94.6845 67.7982 94.8184 68.2909 95.0862C68.7944 95.354 69.1961 95.6914 69.496 96.0985V94.8291H71.7615V103.73H69.496V102.429C69.2068 102.847 68.8051 103.195 68.2909 103.473C67.7875 103.741 67.2037 103.875 66.5396 103.875C65.7898 103.875 65.1042 103.682 64.483 103.297C63.8724 102.911 63.385 102.37 63.0208 101.674C62.6674 100.967 62.4906 100.158 62.4906 99.2477ZM69.496 99.2798C69.496 98.7335 69.3889 98.2676 69.1746 97.8819C68.9604 97.4856 68.6712 97.1857 68.307 96.9822C67.9428 96.7679 67.5518 96.6608 67.1341 96.6608C66.7163 96.6608 66.3307 96.7626 65.9772 96.9661C65.6238 97.1696 65.3345 97.4696 65.1096 97.8659C64.8954 98.2515 64.7883 98.7121 64.7883 99.2477C64.7883 99.7833 64.8954 100.255 65.1096 100.662C65.3345 101.058 65.6238 101.363 65.9772 101.577C66.3414 101.792 66.7271 101.899 67.1341 101.899C67.5518 101.899 67.9428 101.797 68.307 101.594C68.6712 101.379 68.9604 101.079 69.1746 100.694C69.3889 100.297 69.496 99.8261 69.496 99.2798ZM77.3647 103.875C76.6364 103.875 75.9829 103.747 75.4045 103.489C74.8261 103.222 74.3655 102.863 74.0227 102.413C73.6907 101.963 73.5086 101.465 73.4764 100.919H75.7419C75.7848 101.261 75.9508 101.545 76.24 101.77C76.5399 101.995 76.9095 102.108 77.3487 102.108C77.7771 102.108 78.1092 102.022 78.3448 101.851C78.5912 101.679 78.7144 101.46 78.7144 101.192C78.7144 100.903 78.5644 100.688 78.2645 100.549C77.9753 100.399 77.5093 100.238 76.8667 100.067C76.2025 99.9064 75.6562 99.7404 75.2278 99.569C74.81 99.3976 74.4458 99.1352 74.1352 98.7817C73.8353 98.4282 73.6853 97.9516 73.6853 97.3517C73.6853 96.859 73.8246 96.4091 74.1031 96.0021C74.3923 95.595 74.7993 95.2737 75.3242 95.038C75.8598 94.8024 76.4864 94.6845 77.2041 94.6845C78.2645 94.6845 79.1107 94.9523 79.7427 95.4879C80.3747 96.0128 80.7228 96.7251 80.7871 97.6249H78.6341C78.6019 97.2714 78.452 96.9929 78.1842 96.7894C77.9271 96.5751 77.579 96.468 77.1398 96.468C76.7328 96.468 76.4168 96.543 76.1918 96.693C75.9776 96.8429 75.8705 97.0518 75.8705 97.3196C75.8705 97.6195 76.0204 97.8498 76.3204 98.0105C76.6203 98.1604 77.0862 98.3158 77.7182 98.4764C78.3609 98.6371 78.8911 98.8031 79.3089 98.9745C79.7266 99.1459 80.0855 99.4137 80.3854 99.7779C80.696 100.131 80.8567 100.603 80.8674 101.192C80.8674 101.706 80.7228 102.167 80.4336 102.574C80.1551 102.981 79.7481 103.302 79.2125 103.538C78.6876 103.763 78.0717 103.875 77.3647 103.875ZM87.7269 94.7006C88.4018 94.7006 89.0016 94.8506 89.5265 95.1505C90.0514 95.4397 90.4584 95.8735 90.7476 96.452C91.0475 97.0197 91.1975 97.7052 91.1975 98.5086V103.73H88.9481V98.8139C88.9481 98.1069 88.7713 97.566 88.4178 97.191C88.0644 96.8054 87.5823 96.6126 86.9718 96.6126C86.3505 96.6126 85.8578 96.8054 85.4936 97.191C85.1401 97.566 84.9634 98.1069 84.9634 98.8139V103.73H82.7139V91.8406H84.9634V95.9378C85.2526 95.5522 85.6382 95.2523 86.1202 95.038C86.6022 94.8131 87.1378 94.7006 87.7269 94.7006ZM95.586 96.1306C95.8752 95.7021 96.2716 95.354 96.775 95.0862C97.2892 94.8184 97.8729 94.6845 98.5263 94.6845C99.2869 94.6845 99.9724 94.872 100.583 95.2469C101.204 95.6218 101.692 96.1574 102.045 96.8536C102.409 97.5392 102.591 98.3372 102.591 99.2477C102.591 100.158 102.409 100.967 102.045 101.674C101.692 102.37 101.204 102.911 100.583 103.297C99.9724 103.682 99.2869 103.875 98.5263 103.875C97.8622 103.875 97.2784 103.747 96.775 103.489C96.2823 103.222 95.8859 102.879 95.586 102.461V103.73H93.3366V91.8406H95.586V96.1306ZM100.294 99.2477C100.294 98.7121 100.181 98.2515 99.9563 97.8659C99.7421 97.4696 99.4529 97.1696 99.0887 96.9661C98.7352 96.7626 98.3496 96.6608 97.9319 96.6608C97.5248 96.6608 97.1392 96.7679 96.775 96.9822C96.4215 97.1857 96.1323 97.4856 95.9074 97.8819C95.6931 98.2783 95.586 98.7442 95.586 99.2798C95.586 99.8154 95.6931 100.281 95.9074 100.678C96.1323 101.074 96.4215 101.379 96.775 101.594C97.1392 101.797 97.5248 101.899 97.9319 101.899C98.3496 101.899 98.7352 101.792 99.0887 101.577C99.4529 101.363 99.7421 101.058 99.9563 100.662C100.181 100.265 100.294 99.794 100.294 99.2477ZM108.179 103.875C107.322 103.875 106.55 103.688 105.865 103.313C105.179 102.927 104.638 102.386 104.242 101.69C103.856 100.994 103.664 100.19 103.664 99.2798C103.664 98.3693 103.862 97.566 104.258 96.8697C104.665 96.1734 105.217 95.6379 105.913 95.263C106.609 94.8773 107.386 94.6845 108.243 94.6845C109.1 94.6845 109.876 94.8773 110.573 95.263C111.269 95.6379 111.815 96.1734 112.211 96.8697C112.619 97.566 112.822 98.3693 112.822 99.2798C112.822 100.19 112.613 100.994 112.195 101.69C111.788 102.386 111.231 102.927 110.524 103.313C109.828 103.688 109.046 103.875 108.179 103.875ZM108.179 101.915C108.586 101.915 108.966 101.818 109.319 101.626C109.684 101.422 109.973 101.122 110.187 100.726C110.401 100.33 110.508 99.8475 110.508 99.2798C110.508 98.4336 110.283 97.7855 109.834 97.3357C109.394 96.8751 108.853 96.6448 108.211 96.6448C107.568 96.6448 107.027 96.8751 106.588 97.3357C106.159 97.7855 105.945 98.4336 105.945 99.2798C105.945 100.126 106.154 100.779 106.572 101.24C107 101.69 107.536 101.915 108.179 101.915ZM113.894 99.2477C113.894 98.3479 114.07 97.5499 114.424 96.8536C114.788 96.1574 115.275 95.6218 115.886 95.2469C116.507 94.872 117.198 94.6845 117.959 94.6845C118.623 94.6845 119.201 94.8184 119.694 95.0862C120.197 95.354 120.599 95.6914 120.899 96.0985V94.8291H123.165V103.73H120.899V102.429C120.61 102.847 120.208 103.195 119.694 103.473C119.191 103.741 118.607 103.875 117.943 103.875C117.193 103.875 116.507 103.682 115.886 103.297C115.275 102.911 114.788 102.37 114.424 101.674C114.07 100.967 113.894 100.158 113.894 99.2477ZM120.899 99.2798C120.899 98.7335 120.792 98.2676 120.578 97.8819C120.363 97.4856 120.074 97.1857 119.71 96.9822C119.346 96.7679 118.955 96.6608 118.537 96.6608C118.119 96.6608 117.734 96.7626 117.38 96.9661C117.027 97.1696 116.738 97.4696 116.513 97.8659C116.298 98.2515 116.191 98.7121 116.191 99.2477C116.191 99.7833 116.298 100.255 116.513 100.662C116.738 101.058 117.027 101.363 117.38 101.577C117.744 101.792 118.13 101.899 118.537 101.899C118.955 101.899 119.346 101.797 119.71 101.594C120.074 101.379 120.363 101.079 120.578 100.694C120.792 100.297 120.899 99.8261 120.899 99.2798ZM127.611 96.2109C127.9 95.7396 128.275 95.3701 128.736 95.1023C129.207 94.8345 129.743 94.7006 130.342 94.7006V97.0625H129.748C129.041 97.0625 128.505 97.2285 128.141 97.5606C127.788 97.8927 127.611 98.4711 127.611 99.2959V103.73H125.361V94.8291H127.611V96.2109ZM131.279 99.2477C131.279 98.3479 131.456 97.5499 131.809 96.8536C132.173 96.1574 132.666 95.6218 133.287 95.2469C133.909 94.872 134.6 94.6845 135.36 94.6845C135.939 94.6845 136.49 94.8131 137.015 95.0702C137.54 95.3165 137.958 95.6486 138.268 96.0663V91.8406H140.55V103.73H138.268V102.413C137.99 102.852 137.599 103.206 137.095 103.473C136.592 103.741 136.008 103.875 135.344 103.875C134.594 103.875 133.909 103.682 133.287 103.297C132.666 102.911 132.173 102.37 131.809 101.674C131.456 100.967 131.279 100.158 131.279 99.2477ZM138.284 99.2798C138.284 98.7335 138.177 98.2676 137.963 97.8819C137.749 97.4856 137.46 97.1857 137.095 96.9822C136.731 96.7679 136.34 96.6608 135.923 96.6608C135.505 96.6608 135.119 96.7626 134.766 96.9661C134.412 97.1696 134.123 97.4696 133.898 97.8659C133.684 98.2515 133.577 98.7121 133.577 99.2477C133.577 99.7833 133.684 100.255 133.898 100.662C134.123 101.058 134.412 101.363 134.766 101.577C135.13 101.792 135.515 101.899 135.923 101.899C136.34 101.899 136.731 101.797 137.095 101.594C137.46 101.379 137.749 101.079 137.963 100.694C138.177 100.297 138.284 99.8261 138.284 99.2798ZM154.207 92.5154V94.3311H151.219V103.73H148.969V94.3311H145.981V92.5154H154.207ZM164.364 94.8291L158.853 107.94H156.459L158.387 103.506L154.82 94.8291H157.343L159.641 101.047L161.97 94.8291H164.364ZM167.826 96.1145C168.116 95.7075 168.512 95.3701 169.015 95.1023C169.53 94.8238 170.113 94.6845 170.767 94.6845C171.527 94.6845 172.213 94.872 172.823 95.2469C173.445 95.6218 173.932 96.1574 174.286 96.8536C174.65 97.5392 174.832 98.3372 174.832 99.2477C174.832 100.158 174.65 100.967 174.286 101.674C173.932 102.37 173.445 102.911 172.823 103.297C172.213 103.682 171.527 103.875 170.767 103.875C170.113 103.875 169.535 103.741 169.031 103.473C168.539 103.206 168.137 102.868 167.826 102.461V107.972H165.577V94.8291H167.826V96.1145ZM172.534 99.2477C172.534 98.7121 172.422 98.2515 172.197 97.8659C171.983 97.4696 171.693 97.1696 171.329 96.9661C170.976 96.7626 170.59 96.6608 170.172 96.6608C169.765 96.6608 169.38 96.7679 169.015 96.9822C168.662 97.1857 168.373 97.4856 168.148 97.8819C167.934 98.2783 167.826 98.7442 167.826 99.2798C167.826 99.8154 167.934 100.281 168.148 100.678C168.373 101.074 168.662 101.379 169.015 101.594C169.38 101.797 169.765 101.899 170.172 101.899C170.59 101.899 170.976 101.792 171.329 101.577C171.693 101.363 171.983 101.058 172.197 100.662C172.422 100.265 172.534 99.794 172.534 99.2477ZM184.741 99.087C184.741 99.4083 184.72 99.6976 184.677 99.9546H178.17C178.223 100.597 178.448 101.101 178.844 101.465C179.241 101.829 179.728 102.011 180.306 102.011C181.142 102.011 181.736 101.652 182.09 100.935H184.516C184.259 101.792 183.766 102.499 183.038 103.056C182.31 103.602 181.415 103.875 180.355 103.875C179.498 103.875 178.727 103.688 178.041 103.313C177.366 102.927 176.836 102.386 176.45 101.69C176.075 100.994 175.888 100.19 175.888 99.2798C175.888 98.3586 176.075 97.5499 176.45 96.8536C176.825 96.1574 177.35 95.6218 178.025 95.2469C178.7 94.872 179.476 94.6845 180.355 94.6845C181.201 94.6845 181.956 94.8666 182.62 95.2308C183.295 95.595 183.815 96.1145 184.179 96.7894C184.554 97.4535 184.741 98.2194 184.741 99.087ZM182.411 98.4443C182.401 97.8659 182.192 97.4053 181.785 97.0625C181.378 96.709 180.88 96.5323 180.29 96.5323C179.733 96.5323 179.262 96.7037 178.876 97.0464C178.502 97.3785 178.271 97.8445 178.186 98.4443H182.411Z" fill="black"/>
<path d="M51.0057 151.665C51.0057 150.561 51.2521 149.576 51.7448 148.708C52.2483 147.83 52.9284 147.15 53.7854 146.668C54.653 146.175 55.6224 145.928 56.6936 145.928C57.9468 145.928 59.0448 146.25 59.9874 146.892C60.93 147.535 61.5888 148.424 61.9637 149.56H59.3768C59.1197 149.024 58.7555 148.622 58.2842 148.355C57.8236 148.087 57.2881 147.953 56.6775 147.953C56.0241 147.953 55.4403 148.108 54.9262 148.419C54.4227 148.719 54.0264 149.147 53.7372 149.704C53.4587 150.261 53.3194 150.915 53.3194 151.665C53.3194 152.404 53.4587 153.057 53.7372 153.625C54.0264 154.182 54.4227 154.616 54.9262 154.926C55.4403 155.226 56.0241 155.376 56.6775 155.376C57.2881 155.376 57.8236 155.242 58.2842 154.974C58.7555 154.696 59.1197 154.289 59.3768 153.753H61.9637C61.5888 154.899 60.93 155.794 59.9874 156.437C59.0555 157.068 57.9575 157.384 56.6936 157.384C55.6224 157.384 54.653 157.143 53.7854 156.661C52.9284 156.169 52.2483 155.489 51.7448 154.621C51.2521 153.753 51.0057 152.768 51.0057 151.665ZM68.898 148.258C69.5728 148.258 70.1727 148.408 70.6975 148.708C71.2224 148.997 71.6294 149.431 71.9187 150.01C72.2186 150.577 72.3685 151.263 72.3685 152.066V157.288H70.1191V152.371C70.1191 151.665 69.9424 151.124 69.5889 150.749C69.2354 150.363 68.7534 150.17 68.1428 150.17C67.5216 150.17 67.0288 150.363 66.6646 150.749C66.3111 151.124 66.1344 151.665 66.1344 152.371V157.288H63.885V145.398H66.1344V149.495C66.4236 149.11 66.8092 148.81 67.2913 148.596C67.7733 148.371 68.3089 148.258 68.898 148.258ZM73.9292 152.805C73.9292 151.906 74.106 151.108 74.4594 150.411C74.8236 149.715 75.311 149.179 75.9216 148.805C76.5428 148.43 77.2337 148.242 77.9943 148.242C78.6584 148.242 79.2368 148.376 79.7295 148.644C80.233 148.912 80.6347 149.249 80.9346 149.656V148.387H83.2001V157.288H80.9346V155.987C80.6454 156.404 80.2437 156.753 79.7295 157.031C79.2261 157.299 78.6423 157.433 77.9782 157.433C77.2284 157.433 76.5428 157.24 75.9216 156.854C75.311 156.469 74.8236 155.928 74.4594 155.231C74.106 154.524 73.9292 153.716 73.9292 152.805ZM80.9346 152.837C80.9346 152.291 80.8275 151.825 80.6132 151.44C80.399 151.043 80.1098 150.743 79.7456 150.54C79.3814 150.326 78.9904 150.218 78.5727 150.218C78.1549 150.218 77.7693 150.32 77.4158 150.524C77.0623 150.727 76.7731 151.027 76.5482 151.423C76.334 151.809 76.2268 152.27 76.2268 152.805C76.2268 153.341 76.334 153.812 76.5482 154.219C76.7731 154.616 77.0623 154.921 77.4158 155.135C77.78 155.349 78.1656 155.456 78.5727 155.456C78.9904 155.456 79.3814 155.355 79.7456 155.151C80.1098 154.937 80.399 154.637 80.6132 154.251C80.8275 153.855 80.9346 153.384 80.9346 152.837ZM87.6465 149.769C87.9357 149.297 88.3106 148.928 88.7712 148.66C89.2425 148.392 89.7781 148.258 90.3779 148.258V150.62H89.7834C89.0765 150.62 88.5409 150.786 88.1767 151.118C87.8232 151.45 87.6465 152.029 87.6465 152.853V157.288H85.397V148.387H87.6465V149.769ZM94.512 150.235V154.541C94.512 154.84 94.5816 155.06 94.7209 155.199C94.8708 155.328 95.1172 155.392 95.46 155.392H96.5044V157.288H95.0904C93.1945 157.288 92.2465 156.367 92.2465 154.524V150.235H91.1861V148.387H92.2465V146.186H94.512V148.387H96.5044V150.235H94.512ZM109.583 146.073V147.889H106.594V157.288H104.345V147.889H101.356V146.073H109.583ZM119.74 148.387L114.229 161.498H111.835L113.763 157.063L110.196 148.387H112.718L115.016 154.605L117.346 148.387H119.74ZM123.202 149.672C123.491 149.265 123.887 148.928 124.391 148.66C124.905 148.381 125.489 148.242 126.142 148.242C126.903 148.242 127.588 148.43 128.199 148.805C128.82 149.179 129.307 149.715 129.661 150.411C130.025 151.097 130.207 151.895 130.207 152.805C130.207 153.716 130.025 154.524 129.661 155.231C129.307 155.928 128.82 156.469 128.199 156.854C127.588 157.24 126.903 157.433 126.142 157.433C125.489 157.433 124.91 157.299 124.407 157.031C123.914 156.763 123.512 156.426 123.202 156.019V161.53H120.952V148.387H123.202V149.672ZM127.91 152.805C127.91 152.27 127.797 151.809 127.572 151.423C127.358 151.027 127.069 150.727 126.704 150.524C126.351 150.32 125.965 150.218 125.548 150.218C125.141 150.218 124.755 150.326 124.391 150.54C124.037 150.743 123.748 151.043 123.523 151.44C123.309 151.836 123.202 152.302 123.202 152.837C123.202 153.373 123.309 153.839 123.523 154.235C123.748 154.632 124.037 154.937 124.391 155.151C124.755 155.355 125.141 155.456 125.548 155.456C125.965 155.456 126.351 155.349 126.704 155.135C127.069 154.921 127.358 154.616 127.572 154.219C127.797 153.823 127.91 153.352 127.91 152.805ZM140.116 152.645C140.116 152.966 140.095 153.255 140.052 153.512H133.545C133.598 154.155 133.823 154.658 134.22 155.023C134.616 155.387 135.103 155.569 135.682 155.569C136.517 155.569 137.112 155.21 137.465 154.492H139.892C139.634 155.349 139.142 156.056 138.413 156.613C137.685 157.16 136.791 157.433 135.73 157.433C134.873 157.433 134.102 157.245 133.416 156.87C132.742 156.485 132.211 155.944 131.826 155.248C131.451 154.551 131.263 153.748 131.263 152.837C131.263 151.916 131.451 151.108 131.826 150.411C132.201 149.715 132.725 149.179 133.4 148.805C134.075 148.43 134.852 148.242 135.73 148.242C136.576 148.242 137.331 148.424 137.996 148.788C138.67 149.153 139.19 149.672 139.554 150.347C139.929 151.011 140.116 151.777 140.116 152.645ZM137.787 152.002C137.776 151.423 137.567 150.963 137.16 150.62C136.753 150.267 136.255 150.09 135.666 150.09C135.109 150.09 134.638 150.261 134.252 150.604C133.877 150.936 133.647 151.402 133.561 152.002H137.787Z" fill="black"/>
<path d="M55.1468 199.847C56.325 199.847 57.3587 200.078 58.2478 200.538C59.1475 200.999 59.8384 201.658 60.3205 202.515C60.8132 203.361 61.0596 204.346 61.0596 205.471C61.0596 206.596 60.8132 207.581 60.3205 208.427C59.8384 209.263 59.1475 209.911 58.2478 210.372C57.3587 210.832 56.325 211.062 55.1468 211.062H51.2263V199.847H55.1468ZM55.0664 209.15C56.2447 209.15 57.1552 208.829 57.7979 208.186C58.4406 207.544 58.7619 206.639 58.7619 205.471C58.7619 204.303 58.4406 203.393 57.7979 202.74C57.1552 202.075 56.2447 201.743 55.0664 201.743H53.4758V209.15H55.0664ZM66.6959 211.207C65.839 211.207 65.0678 211.02 64.3822 210.645C63.6967 210.259 63.1558 209.718 62.7594 209.022C62.3738 208.326 62.181 207.522 62.181 206.612C62.181 205.701 62.3792 204.898 62.7755 204.202C63.1825 203.505 63.7342 202.97 64.4304 202.595C65.1267 202.209 65.9033 202.017 66.7602 202.017C67.6171 202.017 68.3937 202.209 69.09 202.595C69.7862 202.97 70.3325 203.505 70.7288 204.202C71.1359 204.898 71.3394 205.701 71.3394 206.612C71.3394 207.522 71.1305 208.326 70.7128 209.022C70.3057 209.718 69.7487 210.259 69.0418 210.645C68.3455 211.02 67.5636 211.207 66.6959 211.207ZM66.6959 209.247C67.103 209.247 67.4832 209.15 67.8367 208.958C68.2009 208.754 68.4901 208.454 68.7044 208.058C68.9186 207.662 69.0257 207.18 69.0257 206.612C69.0257 205.766 68.8008 205.118 68.3509 204.668C67.9117 204.207 67.3708 203.977 66.7281 203.977C66.0854 203.977 65.5444 204.207 65.1053 204.668C64.6768 205.118 64.4626 205.766 64.4626 206.612C64.4626 207.458 64.6714 208.111 65.0892 208.572C65.5177 209.022 66.0532 209.247 66.6959 209.247ZM77.9221 202.033C78.9826 202.033 79.8395 202.37 80.4929 203.045C81.1463 203.709 81.473 204.641 81.473 205.841V211.062H79.2236V206.146C79.2236 205.439 79.0468 204.898 78.6934 204.523C78.3399 204.137 77.8579 203.945 77.2473 203.945C76.626 203.945 76.1333 204.137 75.7691 204.523C75.4156 204.898 75.2389 205.439 75.2389 206.146V211.062H72.9895V202.161H75.2389V203.27C75.5388 202.884 75.9191 202.584 76.3797 202.37C76.851 202.145 77.3651 202.033 77.9221 202.033ZM83.0337 206.58C83.0337 205.68 83.2104 204.882 83.5639 204.186C83.9281 203.489 84.4155 202.954 85.026 202.579C85.6473 202.204 86.3382 202.017 87.0987 202.017C87.7629 202.017 88.3413 202.15 88.834 202.418C89.3375 202.686 89.7391 203.023 90.0391 203.43V202.161H92.3046V211.062H90.0391V209.761C89.7499 210.179 89.3482 210.527 88.834 210.805C88.3306 211.073 87.7468 211.207 87.0827 211.207C86.3329 211.207 85.6473 211.014 85.026 210.629C84.4155 210.243 83.9281 209.702 83.5639 209.006C83.2104 208.299 83.0337 207.49 83.0337 206.58ZM90.0391 206.612C90.0391 206.066 89.9319 205.6 89.7177 205.214C89.5035 204.818 89.2143 204.518 88.8501 204.314C88.4859 204.1 88.0949 203.993 87.6772 203.993C87.2594 203.993 86.8738 204.095 86.5203 204.298C86.1668 204.502 85.8776 204.802 85.6527 205.198C85.4384 205.584 85.3313 206.044 85.3313 206.58C85.3313 207.115 85.4384 207.587 85.6527 207.994C85.8776 208.39 86.1668 208.695 86.5203 208.909C86.8845 209.124 87.2701 209.231 87.6772 209.231C88.0949 209.231 88.4859 209.129 88.8501 208.926C89.2143 208.711 89.5035 208.411 89.7177 208.026C89.9319 207.629 90.0391 207.158 90.0391 206.612ZM102.905 202.161V211.062H100.639V209.938C100.35 210.323 99.9698 210.629 99.4985 210.854C99.0379 211.068 98.5344 211.175 97.9881 211.175C97.2919 211.175 96.676 211.03 96.1404 210.741C95.6048 210.441 95.1817 210.007 94.8711 209.44C94.5711 208.861 94.4212 208.176 94.4212 207.383V202.161H96.6706V207.062C96.6706 207.769 96.8474 208.315 97.2008 208.701C97.5543 209.076 98.0363 209.263 98.6469 209.263C99.2682 209.263 99.7556 209.076 100.109 208.701C100.463 208.315 100.639 207.769 100.639 207.062V202.161H102.905ZM108.611 202.017C109.275 202.017 109.859 202.15 110.362 202.418C110.866 202.675 111.262 203.013 111.551 203.43V202.161H113.817V211.127C113.817 211.952 113.651 212.685 113.319 213.328C112.986 213.981 112.488 214.496 111.824 214.87C111.16 215.256 110.357 215.449 109.414 215.449C108.15 215.449 107.111 215.154 106.297 214.565C105.494 213.976 105.038 213.173 104.931 212.155H107.165C107.283 212.562 107.534 212.883 107.92 213.119C108.316 213.365 108.793 213.489 109.35 213.489C110.003 213.489 110.534 213.291 110.941 212.894C111.348 212.509 111.551 211.919 111.551 211.127V209.745C111.262 210.163 110.86 210.511 110.346 210.789C109.843 211.068 109.264 211.207 108.611 211.207C107.861 211.207 107.175 211.014 106.554 210.629C105.933 210.243 105.44 209.702 105.076 209.006C104.723 208.299 104.546 207.49 104.546 206.58C104.546 205.68 104.723 204.882 105.076 204.186C105.44 203.489 105.928 202.954 106.538 202.579C107.159 202.204 107.85 202.017 108.611 202.017ZM111.551 206.612C111.551 206.066 111.444 205.6 111.23 205.214C111.016 204.818 110.726 204.518 110.362 204.314C109.998 204.1 109.607 203.993 109.189 203.993C108.771 203.993 108.386 204.095 108.032 204.298C107.679 204.502 107.39 204.802 107.165 205.198C106.951 205.584 106.843 206.044 106.843 206.58C106.843 207.115 106.951 207.587 107.165 207.994C107.39 208.39 107.679 208.695 108.032 208.909C108.397 209.124 108.782 209.231 109.189 209.231C109.607 209.231 109.998 209.129 110.362 208.926C110.726 208.711 111.016 208.411 111.23 208.026C111.444 207.629 111.551 207.158 111.551 206.612ZM121.027 202.033C121.701 202.033 122.301 202.183 122.826 202.483C123.351 202.772 123.758 203.206 124.047 203.784C124.347 204.352 124.497 205.037 124.497 205.841V211.062H122.248V206.146C122.248 205.439 122.071 204.898 121.718 204.523C121.364 204.137 120.882 203.945 120.271 203.945C119.65 203.945 119.157 204.137 118.793 204.523C118.44 204.898 118.263 205.439 118.263 206.146V211.062H116.014V199.173H118.263V203.27C118.552 202.884 118.938 202.584 119.42 202.37C119.902 202.145 120.437 202.033 121.027 202.033ZM129.255 204.009V208.315C129.255 208.615 129.325 208.834 129.464 208.974C129.614 209.102 129.86 209.167 130.203 209.167H131.248V211.062H129.834C127.938 211.062 126.99 210.141 126.99 208.299V204.009H125.929V202.161H126.99V199.96H129.255V202.161H131.248V204.009H129.255ZM142.478 211.062L140.004 206.692H138.943V211.062H136.694V199.847H140.904C141.771 199.847 142.51 200.003 143.121 200.313C143.732 200.613 144.187 201.026 144.487 201.551C144.797 202.065 144.953 202.643 144.953 203.286C144.953 204.025 144.738 204.694 144.31 205.294C143.882 205.883 143.244 206.29 142.398 206.515L145.081 211.062H142.478ZM138.943 205.005H140.823C141.434 205.005 141.889 204.86 142.189 204.571C142.489 204.271 142.639 203.859 142.639 203.334C142.639 202.82 142.489 202.424 142.189 202.145C141.889 201.856 141.434 201.711 140.823 201.711H138.943V205.005ZM146.409 206.58C146.409 205.68 146.586 204.882 146.939 204.186C147.303 203.489 147.791 202.954 148.401 202.579C149.022 202.204 149.713 202.017 150.474 202.017C151.138 202.017 151.716 202.15 152.209 202.418C152.713 202.686 153.114 203.023 153.414 203.43V202.161H155.68V211.062H153.414V209.761C153.125 210.179 152.723 210.527 152.209 210.805C151.706 211.073 151.122 211.207 150.458 211.207C149.708 211.207 149.022 211.014 148.401 210.629C147.791 210.243 147.303 209.702 146.939 209.006C146.586 208.299 146.409 207.49 146.409 206.58ZM153.414 206.612C153.414 206.066 153.307 205.6 153.093 205.214C152.879 204.818 152.589 204.518 152.225 204.314C151.861 204.1 151.47 203.993 151.052 203.993C150.635 203.993 150.249 204.095 149.895 204.298C149.542 204.502 149.253 204.802 149.028 205.198C148.814 205.584 148.706 206.044 148.706 206.58C148.706 207.115 148.814 207.587 149.028 207.994C149.253 208.39 149.542 208.695 149.895 208.909C150.26 209.124 150.645 209.231 151.052 209.231C151.47 209.231 151.861 209.129 152.225 208.926C152.589 208.711 152.879 208.411 153.093 208.026C153.307 207.629 153.414 207.158 153.414 206.612ZM157.298 206.58C157.298 205.68 157.475 204.882 157.828 204.186C158.193 203.489 158.685 202.954 159.307 202.579C159.928 202.204 160.619 202.017 161.379 202.017C161.958 202.017 162.509 202.145 163.034 202.402C163.559 202.649 163.977 202.981 164.288 203.398V199.173H166.569V211.062H164.288V209.745C164.009 210.184 163.618 210.538 163.115 210.805C162.611 211.073 162.027 211.207 161.363 211.207C160.613 211.207 159.928 211.014 159.307 210.629C158.685 210.243 158.193 209.702 157.828 209.006C157.475 208.299 157.298 207.49 157.298 206.58ZM164.304 206.612C164.304 206.066 164.196 205.6 163.982 205.214C163.768 204.818 163.479 204.518 163.115 204.314C162.75 204.1 162.359 203.993 161.942 203.993C161.524 203.993 161.138 204.095 160.785 204.298C160.431 204.502 160.142 204.802 159.917 205.198C159.703 205.584 159.596 206.044 159.596 206.58C159.596 207.115 159.703 207.587 159.917 207.994C160.142 208.39 160.431 208.695 160.785 208.909C161.149 209.124 161.535 209.231 161.942 209.231C162.359 209.231 162.75 209.129 163.115 208.926C163.479 208.711 163.768 208.411 163.982 208.026C164.196 207.629 164.304 207.158 164.304 206.612ZM169.907 201.101C169.51 201.101 169.178 200.978 168.911 200.731C168.654 200.474 168.525 200.158 168.525 199.783C168.525 199.408 168.654 199.098 168.911 198.851C169.178 198.594 169.51 198.466 169.907 198.466C170.303 198.466 170.63 198.594 170.887 198.851C171.155 199.098 171.289 199.408 171.289 199.783C171.289 200.158 171.155 200.474 170.887 200.731C170.63 200.978 170.303 201.101 169.907 201.101ZM171.015 202.161V211.062H168.766V202.161H171.015ZM181.641 202.161V211.062H179.376V209.938C179.086 210.323 178.706 210.629 178.235 210.854C177.774 211.068 177.271 211.175 176.725 211.175C176.028 211.175 175.412 211.03 174.877 210.741C174.341 210.441 173.918 210.007 173.607 209.44C173.308 208.861 173.158 208.176 173.158 207.383V202.161H175.407V207.062C175.407 207.769 175.584 208.315 175.937 208.701C176.291 209.076 176.773 209.263 177.383 209.263C178.005 209.263 178.492 209.076 178.845 208.701C179.199 208.315 179.376 207.769 179.376 207.062V202.161H181.641ZM187.267 211.207C186.538 211.207 185.885 211.079 185.307 210.821C184.728 210.554 184.268 210.195 183.925 209.745C183.593 209.295 183.411 208.797 183.379 208.251H185.644C185.687 208.593 185.853 208.877 186.142 209.102C186.442 209.327 186.812 209.44 187.251 209.44C187.679 209.44 188.011 209.354 188.247 209.183C188.493 209.011 188.617 208.792 188.617 208.524C188.617 208.235 188.467 208.02 188.167 207.881C187.877 207.731 187.411 207.571 186.769 207.399C186.105 207.238 185.558 207.072 185.13 206.901C184.712 206.73 184.348 206.467 184.037 206.114C183.737 205.76 183.587 205.284 183.587 204.684C183.587 204.191 183.727 203.741 184.005 203.334C184.294 202.927 184.701 202.606 185.226 202.37C185.762 202.134 186.389 202.017 187.106 202.017C188.167 202.017 189.013 202.284 189.645 202.82C190.277 203.345 190.625 204.057 190.689 204.957H188.536C188.504 204.603 188.354 204.325 188.086 204.121C187.829 203.907 187.481 203.8 187.042 203.8C186.635 203.8 186.319 203.875 186.094 204.025C185.88 204.175 185.773 204.384 185.773 204.652C185.773 204.952 185.923 205.182 186.222 205.343C186.522 205.492 186.988 205.648 187.62 205.808C188.263 205.969 188.793 206.135 189.211 206.307C189.629 206.478 189.988 206.746 190.288 207.11C190.598 207.463 190.759 207.935 190.77 208.524C190.77 209.038 190.625 209.499 190.336 209.906C190.057 210.313 189.65 210.634 189.115 210.87C188.59 211.095 187.974 211.207 187.267 211.207ZM195.93 202.225C195.93 201.411 196.166 200.774 196.637 200.313C197.119 199.853 197.735 199.623 198.485 199.623C199.235 199.623 199.846 199.853 200.317 200.313C200.799 200.774 201.04 201.411 201.04 202.225C201.04 203.05 200.799 203.693 200.317 204.154C199.846 204.614 199.235 204.844 198.485 204.844C197.735 204.844 197.119 204.614 196.637 204.154C196.166 203.693 195.93 203.05 195.93 202.225ZM206.246 199.815L199.931 211.062H197.746L204.044 199.815H206.246ZM198.469 200.972C197.88 200.972 197.585 201.39 197.585 202.225C197.585 203.072 197.88 203.495 198.469 203.495C198.758 203.495 198.983 203.393 199.144 203.189C199.305 202.975 199.385 202.654 199.385 202.225C199.385 201.39 199.08 200.972 198.469 200.972ZM202.984 208.636C202.984 207.812 203.22 207.174 203.691 206.724C204.173 206.264 204.789 206.033 205.539 206.033C206.289 206.033 206.894 206.264 207.354 206.724C207.826 207.174 208.061 207.812 208.061 208.636C208.061 209.461 207.826 210.104 207.354 210.564C206.894 211.025 206.289 211.255 205.539 211.255C204.778 211.255 204.162 211.025 203.691 210.564C203.22 210.104 202.984 209.461 202.984 208.636ZM205.523 207.383C204.912 207.383 204.607 207.801 204.607 208.636C204.607 209.483 204.912 209.906 205.523 209.906C206.122 209.906 206.422 209.483 206.422 208.636C206.422 207.801 206.122 207.383 205.523 207.383Z" fill="black"/>
<g filter="url(#filter1_d)">
<rect x="22" y="16" width="601.857" height="41.5074" fill="#366AE3"/>
</g>
<path d="M60.074 34.9674C60.074 35.5673 59.9294 36.1296 59.6402 36.6545C59.3617 37.1794 58.9172 37.6025 58.3066 37.9238C57.7068 38.2452 56.9463 38.4059 56.0251 38.4059H54.1452V42.7119H51.8958V31.4969H56.0251C56.8927 31.4969 57.6318 31.6469 58.2424 31.9468C58.8529 32.2467 59.3082 32.6591 59.6081 33.184C59.9187 33.7088 60.074 34.3033 60.074 34.9674ZM55.9287 36.5902C56.5499 36.5902 57.0105 36.451 57.3105 36.1725C57.6104 35.8833 57.7603 35.4816 57.7603 34.9674C57.7603 33.8749 57.1498 33.3286 55.9287 33.3286H54.1452V36.5902H55.9287ZM63.9206 33.3125V36.1243H67.6964V37.9078H63.9206V40.8802H68.1784V42.7119H61.6711V31.4808H68.1784V33.3125H63.9206ZM76.0069 42.7119L73.5325 38.3416H72.472V42.7119H70.2226V31.4969H74.4323C75.2999 31.4969 76.039 31.6522 76.6495 31.9628C77.2601 32.2628 77.7154 32.6752 78.0153 33.2C78.3259 33.7142 78.4812 34.2926 78.4812 34.9353C78.4812 35.6744 78.267 36.3439 77.8385 36.9437C77.4101 37.5329 76.7727 37.9399 75.9265 38.1648L78.6098 42.7119H76.0069ZM72.472 36.6545H74.3519C74.9625 36.6545 75.4177 36.5099 75.7176 36.2207C76.0176 35.9208 76.1675 35.5084 76.1675 34.9835C76.1675 34.4694 76.0176 34.073 75.7176 33.7945C75.4177 33.5053 74.9625 33.3607 74.3519 33.3607H72.472V36.6545ZM87.4408 31.4969V33.3125H82.7652V36.1886H86.3482V37.972H82.7652V42.7119H80.5158V31.4969H87.4408ZM94.2417 42.8244C93.192 42.8244 92.2279 42.578 91.3496 42.0853C90.4712 41.5926 89.775 40.9124 89.2608 40.0447C88.7466 39.1664 88.4896 38.1756 88.4896 37.0723C88.4896 35.9797 88.7466 34.9996 89.2608 34.1319C89.775 33.2536 90.4712 32.568 91.3496 32.0753C92.2279 31.5826 93.192 31.3362 94.2417 31.3362C95.3021 31.3362 96.2662 31.5826 97.1338 32.0753C98.0122 32.568 98.7031 33.2536 99.2065 34.1319C99.7207 34.9996 99.9777 35.9797 99.9777 37.0723C99.9777 38.1756 99.7207 39.1664 99.2065 40.0447C98.7031 40.9124 98.0122 41.5926 97.1338 42.0853C96.2555 42.578 95.2914 42.8244 94.2417 42.8244ZM94.2417 40.816C94.9165 40.816 95.511 40.666 96.0252 40.3661C96.5393 40.0554 96.941 39.6163 97.2302 39.0486C97.5194 38.4808 97.664 37.8221 97.664 37.0723C97.664 36.3225 97.5194 35.669 97.2302 35.112C96.941 34.5443 96.5393 34.1105 96.0252 33.8106C95.511 33.5107 94.9165 33.3607 94.2417 33.3607C93.5669 33.3607 92.967 33.5107 92.4421 33.8106C91.928 34.1105 91.5263 34.5443 91.2371 35.112C90.9479 35.669 90.8033 36.3225 90.8033 37.0723C90.8033 37.8221 90.9479 38.4808 91.2371 39.0486C91.5263 39.6163 91.928 40.0554 92.4421 40.3661C92.967 40.666 93.5669 40.816 94.2417 40.816ZM107.436 42.7119L104.961 38.3416H103.901V42.7119H101.651V31.4969H105.861C106.729 31.4969 107.468 31.6522 108.078 31.9628C108.689 32.2628 109.144 32.6752 109.444 33.2C109.755 33.7142 109.91 34.2926 109.91 34.9353C109.91 35.6744 109.696 36.3439 109.267 36.9437C108.839 37.5329 108.201 37.9399 107.355 38.1648L110.038 42.7119H107.436ZM103.901 36.6545H105.781C106.391 36.6545 106.846 36.5099 107.146 36.2207C107.446 35.9208 107.596 35.5084 107.596 34.9835C107.596 34.4694 107.446 34.073 107.146 33.7945C106.846 33.5053 106.391 33.3607 105.781 33.3607H103.901V36.6545ZM124.172 31.4969V42.7119H121.922V35.4173L118.918 42.7119H117.215L114.194 35.4173V42.7119H111.944V31.4969H114.499L118.066 39.8359L121.633 31.4969H124.172ZM133.272 40.575H128.806L128.067 42.7119H125.705L129.738 31.4808H132.357L136.39 42.7119H134.012L133.272 40.575ZM132.662 38.7754L131.039 34.0837L129.416 38.7754H132.662ZM147.489 42.7119H145.24L140.146 35.0156V42.7119H137.897V31.4808H140.146L145.24 39.1932V31.4808H147.489V42.7119ZM149.166 37.0883C149.166 35.985 149.412 34.9996 149.905 34.1319C150.408 33.2536 151.089 32.5734 151.946 32.0914C152.813 31.5986 153.783 31.3523 154.854 31.3523C156.107 31.3523 157.205 31.6736 158.148 32.3163C159.09 32.959 159.749 33.8481 160.124 34.9835H157.537C157.28 34.4479 156.916 34.0462 156.444 33.7785C155.984 33.5107 155.448 33.3768 154.838 33.3768C154.184 33.3768 153.6 33.5321 153.086 33.8427C152.583 34.1426 152.187 34.5711 151.897 35.1281C151.619 35.6851 151.48 36.3385 151.48 37.0883C151.48 37.8274 151.619 38.4808 151.897 39.0486C152.187 39.6056 152.583 40.0394 153.086 40.35C153.6 40.6499 154.184 40.7999 154.838 40.7999C155.448 40.7999 155.984 40.666 156.444 40.3982C156.916 40.1197 157.28 39.7127 157.537 39.1771H160.124C159.749 40.3232 159.09 41.2176 158.148 41.8603C157.216 42.4923 156.118 42.8083 154.854 42.8083C153.783 42.8083 152.813 42.5673 151.946 42.0853C151.089 41.5926 150.408 40.9124 149.905 40.0447C149.412 39.1771 149.166 38.1916 149.166 37.0883ZM164.295 33.3125V36.1243H168.07V37.9078H164.295V40.8802H168.552V42.7119H162.045V31.4808H168.552V33.3125H164.295ZM181.302 40.575H176.835L176.096 42.7119H173.734L177.767 31.4808H180.386L184.419 42.7119H182.041L181.302 40.575ZM180.691 38.7754L179.069 34.0837L177.446 38.7754H180.691ZM195.519 42.7119H193.269L188.176 35.0156V42.7119H185.926V31.4808H188.176L193.269 39.1932V31.4808H195.519V42.7119ZM204.618 40.575H200.152L199.413 42.7119H197.051L201.084 31.4808H203.703L207.736 42.7119H205.358L204.618 40.575ZM204.008 38.7754L202.385 34.0837L200.762 38.7754H204.008ZM211.492 40.9284H215.188V42.7119H209.243V31.4969H211.492V40.9284ZM225.535 31.4969L221.743 38.8075V42.7119H219.494V38.8075L215.686 31.4969H218.224L220.635 36.6224L223.029 31.4969H225.535ZM230.705 42.8244C229.923 42.8244 229.216 42.6905 228.584 42.4227C227.962 42.1549 227.47 41.7693 227.106 41.2659C226.741 40.7624 226.554 40.1679 226.543 39.4824H228.953C228.985 39.943 229.146 40.3072 229.435 40.575C229.735 40.8427 230.142 40.9766 230.656 40.9766C231.181 40.9766 231.594 40.8535 231.894 40.6071C232.194 40.35 232.343 40.018 232.343 39.6109C232.343 39.2789 232.242 39.0057 232.038 38.7915C231.835 38.5772 231.578 38.4112 231.267 38.2934C230.967 38.1648 230.549 38.0256 230.014 37.8756C229.285 37.6614 228.691 37.4525 228.23 37.249C227.78 37.0348 227.389 36.7188 227.057 36.301C226.736 35.8726 226.575 35.3049 226.575 34.5979C226.575 33.9338 226.741 33.3553 227.073 32.8626C227.405 32.3699 227.871 31.995 228.471 31.7379C229.071 31.4701 229.757 31.3362 230.528 31.3362C231.685 31.3362 232.622 31.6201 233.34 32.1878C234.068 32.7448 234.47 33.5267 234.545 34.5336H232.07C232.049 34.148 231.883 33.832 231.572 33.5856C231.272 33.3286 230.871 33.2 230.367 33.2C229.928 33.2 229.575 33.3125 229.307 33.5374C229.05 33.7624 228.921 34.0891 228.921 34.5176C228.921 34.8175 229.018 35.0692 229.21 35.2727C229.414 35.4655 229.66 35.6262 229.949 35.7547C230.249 35.8726 230.667 36.0118 231.203 36.1725C231.931 36.3867 232.526 36.601 232.986 36.8152C233.447 37.0294 233.843 37.3508 234.175 37.7792C234.507 38.2077 234.673 38.7701 234.673 39.4663C234.673 40.0662 234.518 40.6232 234.207 41.1373C233.897 41.6515 233.441 42.0639 232.842 42.3745C232.242 42.6744 231.529 42.8244 230.705 42.8244ZM238.873 31.4969V42.7119H236.623V31.4969H238.873ZM244.968 42.8244C244.186 42.8244 243.479 42.6905 242.847 42.4227C242.225 42.1549 241.733 41.7693 241.368 41.2659C241.004 40.7624 240.817 40.1679 240.806 39.4824H243.216C243.248 39.943 243.409 40.3072 243.698 40.575C243.998 40.8427 244.405 40.9766 244.919 40.9766C245.444 40.9766 245.857 40.8535 246.157 40.6071C246.456 40.35 246.606 40.018 246.606 39.6109C246.606 39.2789 246.505 39.0057 246.301 38.7915C246.098 38.5772 245.841 38.4112 245.53 38.2934C245.23 38.1648 244.812 38.0256 244.277 37.8756C243.548 37.6614 242.954 37.4525 242.493 37.249C242.043 37.0348 241.652 36.7188 241.32 36.301C240.999 35.8726 240.838 35.3049 240.838 34.5979C240.838 33.9338 241.004 33.3553 241.336 32.8626C241.668 32.3699 242.134 31.995 242.734 31.7379C243.334 31.4701 244.02 31.3362 244.791 31.3362C245.948 31.3362 246.885 31.6201 247.603 32.1878C248.331 32.7448 248.733 33.5267 248.808 34.5336H246.333C246.312 34.148 246.146 33.832 245.835 33.5856C245.535 33.3286 245.134 33.2 244.63 33.2C244.191 33.2 243.837 33.3125 243.57 33.5374C243.313 33.7624 243.184 34.0891 243.184 34.5176C243.184 34.8175 243.28 35.0692 243.473 35.2727C243.677 35.4655 243.923 35.6262 244.212 35.7547C244.512 35.8726 244.93 36.0118 245.466 36.1725C246.194 36.3867 246.789 36.601 247.249 36.8152C247.71 37.0294 248.106 37.3508 248.438 37.7792C248.77 38.2077 248.936 38.7701 248.936 39.4663C248.936 40.0662 248.781 40.6232 248.47 41.1373C248.16 41.6515 247.704 42.0639 247.105 42.3745C246.505 42.6744 245.792 42.8244 244.968 42.8244Z" fill="white"/>
<g filter="url(#filter2_d)">
<rect x="218.156" y="80.2695" width="285.196" height="35.4821" rx="1.33895" fill="#FCFCFC"/>
<rect x="218.181" y="80.2949" width="285.145" height="35.4313" rx="1.31356" stroke="black" stroke-width="0.0507724"/>
</g>
<g filter="url(#filter3_d)">
<rect x="218.156" y="133.158" width="142.598" height="35.4821" rx="1.33895" fill="#FCFCFC"/>
<rect x="218.181" y="133.184" width="142.547" height="35.4313" rx="1.31356" stroke="black" stroke-width="0.0507724"/>
</g>
<g filter="url(#filter4_d)">
<rect x="218.156" y="187.386" width="142.598" height="35.4821" rx="1.33895" fill="#FCFCFC"/>
<rect x="218.181" y="187.411" width="142.547" height="35.4313" rx="1.31356" stroke="black" stroke-width="0.0507724"/>
</g>
<g filter="url(#filter5_d)">
<rect x="519.419" y="80.2695" width="70.9642" height="35.4821" rx="2.0309" fill="#366AE3"/>
</g>
<path d="M535.042 96.9553H536.985C537.508 96.9553 537.909 96.8266 538.19 96.5691C538.471 96.3117 538.612 95.9411 538.612 95.4574C538.612 95.0284 538.467 94.6851 538.179 94.4276C537.89 94.1624 537.48 94.0298 536.95 94.0298H535.042V96.9553ZM533.498 101.964V92.7074H537.242C538.194 92.7074 538.924 92.9571 539.431 93.4564C539.946 93.9556 540.203 94.5798 540.203 95.3287C540.203 95.9606 540.063 96.4755 539.782 96.8734C539.501 97.2713 539.177 97.5404 538.811 97.6809C539.107 97.8837 539.318 98.0982 539.442 98.3245C539.567 98.5507 539.673 98.894 539.758 99.3543C539.946 100.275 540.281 101.145 540.765 101.964H539.045C538.662 101.316 538.362 100.485 538.143 99.4713C538.058 99.0734 537.929 98.7731 537.757 98.5702C537.593 98.3674 537.332 98.266 536.973 98.266H535.042V101.964H533.498ZM541.28 98.5585C541.28 97.4741 541.576 96.6121 542.169 95.9723C542.77 95.3248 543.523 95.001 544.428 95.001C545.317 95.001 546.05 95.3248 546.628 95.9723C547.205 96.6199 547.494 97.4624 547.494 98.5C547.494 98.7028 547.482 98.9018 547.458 99.0968H542.778C542.778 99.6117 542.93 100.056 543.234 100.431C543.546 100.798 543.971 100.981 544.509 100.981C544.884 100.981 545.212 100.891 545.492 100.712C545.781 100.524 546 100.287 546.148 99.9979L547.388 100.419C547.17 100.918 546.815 101.336 546.323 101.671C545.832 102.007 545.219 102.175 544.486 102.175C543.542 102.175 542.77 101.847 542.169 101.192C541.576 100.536 541.28 99.6585 541.28 98.5585ZM542.801 98.0553H545.984C545.984 97.5404 545.847 97.1035 545.574 96.7447C545.301 96.378 544.919 96.1947 544.428 96.1947C543.936 96.1947 543.542 96.3819 543.246 96.7564C542.957 97.123 542.809 97.556 542.801 98.0553ZM548.172 96.4755V95.2117H549.202V94.4861C549.202 93.7918 549.374 93.273 549.717 92.9298C550.068 92.5787 550.56 92.4032 551.191 92.4032H552.256V93.6553H551.402C551.16 93.6553 550.981 93.7294 550.864 93.8776C550.755 94.0259 550.7 94.2638 550.7 94.5915V95.2117H552.104V96.4755H550.7V101.964H549.202V96.4755H548.172ZM553.064 101.964V95.2117H554.491V95.9372C554.64 95.6876 554.85 95.4691 555.123 95.2819C555.404 95.0947 555.736 95.001 556.118 95.001C556.477 95.001 556.77 95.0518 556.996 95.1532V96.4989C556.699 96.4053 556.407 96.3585 556.118 96.3585C555.611 96.3585 555.221 96.5574 554.948 96.9553C554.683 97.3454 554.55 97.8681 554.55 98.5234V101.964H553.064ZM557.382 98.5585C557.382 97.4741 557.678 96.6121 558.271 95.9723C558.872 95.3248 559.625 95.001 560.53 95.001C561.419 95.001 562.153 95.3248 562.73 95.9723C563.307 96.6199 563.596 97.4624 563.596 98.5C563.596 98.7028 563.584 98.9018 563.561 99.0968H558.88C558.88 99.6117 559.032 100.056 559.336 100.431C559.648 100.798 560.073 100.981 560.612 100.981C560.986 100.981 561.314 100.891 561.595 100.712C561.883 100.524 562.102 100.287 562.25 99.9979L563.49 100.419C563.272 100.918 562.917 101.336 562.426 101.671C561.934 102.007 561.322 102.175 560.588 102.175C559.644 102.175 558.872 101.847 558.271 101.192C557.678 100.536 557.382 99.6585 557.382 98.5585ZM558.903 98.0553H562.086C562.086 97.5404 561.95 97.1035 561.677 96.7447C561.404 96.378 561.021 96.1947 560.53 96.1947C560.038 96.1947 559.644 96.3819 559.348 96.7564C559.059 97.123 558.911 97.556 558.903 98.0553ZM564.298 100.56L565.363 99.9394C565.831 100.626 566.439 100.969 567.188 100.969C567.555 100.969 567.844 100.899 568.054 100.759C568.273 100.61 568.382 100.415 568.382 100.173C568.382 99.9784 568.292 99.8068 568.113 99.6585C567.941 99.5103 567.758 99.4011 567.563 99.3309C567.368 99.2529 567.075 99.1514 566.685 99.0266C566.615 99.0032 566.564 98.9876 566.533 98.9798C566.252 98.8862 566.014 98.7965 565.819 98.7107C565.632 98.617 565.433 98.4961 565.222 98.3479C565.012 98.1919 564.852 98.0007 564.743 97.7745C564.633 97.5404 564.579 97.2713 564.579 96.967C564.579 96.3741 564.828 95.8982 565.328 95.5393C565.827 95.1805 566.447 95.001 567.188 95.001C567.742 95.001 568.265 95.1493 568.756 95.4457C569.248 95.7344 569.615 96.105 569.856 96.5574L568.874 97.1543C568.413 96.5223 567.855 96.2064 567.2 96.2064C566.841 96.2064 566.564 96.2805 566.369 96.4287C566.182 96.5691 566.088 96.7564 566.088 96.9904C566.088 97.1855 566.17 97.361 566.334 97.517C566.506 97.6653 566.681 97.7745 566.861 97.8447C567.04 97.9149 567.294 98.0046 567.621 98.1138C567.707 98.1372 567.77 98.1567 567.809 98.1723C569.197 98.617 569.892 99.288 569.892 100.185C569.892 100.739 569.658 101.211 569.189 101.601C568.729 101.983 568.074 102.175 567.223 102.175C566.568 102.175 565.983 102.03 565.468 101.742C564.961 101.453 564.571 101.059 564.298 100.56ZM571.12 101.964V92.4032H572.583V95.9021H572.618C572.798 95.6447 573.043 95.4301 573.355 95.2585C573.675 95.0869 574.011 95.001 574.362 95.001C575.009 95.001 575.548 95.2117 575.977 95.633C576.406 96.0464 576.62 96.7096 576.62 97.6223V101.964H575.146V97.8096C575.146 96.7798 574.795 96.2649 574.093 96.2649C573.664 96.2649 573.305 96.4482 573.016 96.8149C572.727 97.1816 572.583 97.6106 572.583 98.1021V101.964H571.12Z" fill="white"/>
<g filter="url(#filter6_d)">
<rect x="218.825" y="272.408" width="19.4147" height="19.4147" fill="white"/>
<rect x="218.859" y="272.442" width="19.3478" height="19.3478" stroke="black" stroke-width="0.0669474"/>
</g>
<g filter="url(#filter7_d)">
<rect x="218.825" y="240.943" width="19.4147" height="19.4147" fill="#5789FF"/>
<rect x="218.859" y="240.977" width="19.3478" height="19.3478" stroke="black" stroke-width="0.0669474"/>
</g>
<path d="M483.447 93.861L487.331 97.7405L491.215 93.861L492.408 95.0554L487.331 100.138L482.254 95.0554L483.447 93.861Z" fill="black"/>
<path d="M335.837 148.974L339.721 152.854L343.605 148.974L344.799 150.169L339.721 155.251L334.644 150.169L335.837 148.974Z" fill="black"/>
<path d="M335.837 199.854L339.721 203.734L343.605 199.854L344.799 201.049L339.721 206.131L334.644 201.049L335.837 199.854Z" fill="black"/>
<path d="M231.556 95.7228C231.556 96.5474 231.272 97.2345 230.703 97.7842C230.144 98.3244 229.286 98.5945 228.13 98.5945H226.225V102.731H224.932V92.8227H228.13C229.249 92.8227 230.097 93.0928 230.675 93.633C231.263 94.1732 231.556 94.8698 231.556 95.7228ZM228.13 97.5283C228.851 97.5283 229.381 97.3719 229.722 97.0591C230.064 96.7464 230.234 96.3009 230.234 95.7228C230.234 94.5002 229.533 93.8889 228.13 93.8889H226.225V97.5283H228.13ZM240.272 98.5376C240.272 98.7841 240.258 99.0447 240.23 99.3195H234.003C234.05 100.087 234.311 100.689 234.785 101.125C235.268 101.551 235.851 101.765 236.533 101.765C237.093 101.765 237.557 101.637 237.927 101.381C238.306 101.116 238.571 100.765 238.723 100.329H240.116C239.907 101.078 239.49 101.689 238.865 102.163C238.239 102.627 237.462 102.859 236.533 102.859C235.794 102.859 235.131 102.694 234.543 102.362C233.965 102.03 233.51 101.561 233.178 100.954C232.847 100.338 232.681 99.6276 232.681 98.822C232.681 98.0164 232.842 97.3103 233.164 96.7037C233.486 96.0972 233.937 95.6328 234.515 95.3105C235.102 94.9788 235.775 94.813 236.533 94.813C237.273 94.813 237.927 94.9741 238.495 95.2963C239.064 95.6186 239.5 96.064 239.803 96.6327C240.116 97.1918 240.272 97.8268 240.272 98.5376ZM238.936 98.2675C238.936 97.7747 238.827 97.353 238.609 97.0023C238.391 96.6421 238.093 96.372 237.713 96.192C237.344 96.0024 236.932 95.9076 236.477 95.9076C235.823 95.9076 235.264 96.1161 234.799 96.5331C234.344 96.9502 234.084 97.5283 234.017 98.2675H238.936ZM243.274 96.2062C243.501 95.7607 243.823 95.4148 244.24 95.1684C244.667 94.922 245.183 94.7988 245.79 94.7988V96.1351H245.449C243.999 96.1351 243.274 96.9217 243.274 98.495V102.731H241.98V94.9409H243.274V96.2062ZM250.454 96.0071H248.819V102.731H247.525V96.0071H246.516V94.9409H247.525V94.3865C247.525 93.5146 247.748 92.8796 248.193 92.4815C248.648 92.074 249.373 91.8702 250.368 91.8702V92.9506C249.8 92.9506 249.397 93.0644 249.16 93.2918C248.932 93.5098 248.819 93.8747 248.819 94.3865V94.9409H250.454V96.0071ZM255.36 102.859C254.63 102.859 253.966 102.694 253.369 102.362C252.782 102.03 252.317 101.561 251.976 100.954C251.644 100.338 251.479 99.6276 251.479 98.822C251.479 98.0259 251.649 97.3245 251.99 96.718C252.341 96.1019 252.815 95.6328 253.412 95.3105C254.009 94.9788 254.677 94.813 255.416 94.813C256.156 94.813 256.824 94.9788 257.421 95.3105C258.018 95.6328 258.487 96.0972 258.828 96.7037C259.179 97.3103 259.354 98.0164 259.354 98.822C259.354 99.6276 259.174 100.338 258.814 100.954C258.464 101.561 257.985 102.03 257.378 102.362C256.772 102.694 256.099 102.859 255.36 102.859ZM255.36 101.722C255.824 101.722 256.26 101.613 256.668 101.395C257.075 101.177 257.402 100.85 257.648 100.414C257.904 99.9782 258.032 99.4475 258.032 98.822C258.032 98.1965 257.909 97.6657 257.663 97.2297C257.416 96.7938 257.094 96.4715 256.696 96.263C256.298 96.0451 255.867 95.9361 255.402 95.9361C254.928 95.9361 254.492 96.0451 254.094 96.263C253.706 96.4715 253.393 96.7938 253.156 97.2297C252.919 97.6657 252.801 98.1965 252.801 98.822C252.801 99.457 252.914 99.9924 253.142 100.428C253.379 100.864 253.692 101.191 254.08 101.409C254.469 101.618 254.895 101.722 255.36 101.722ZM262.349 96.2062C262.577 95.7607 262.899 95.4148 263.316 95.1684C263.742 94.922 264.259 94.7988 264.865 94.7988V96.1351H264.524C263.074 96.1351 262.349 96.9217 262.349 98.495V102.731H261.055V94.9409H262.349V96.2062ZM275.727 94.7988C276.334 94.7988 276.874 94.9267 277.348 95.1826C277.822 95.429 278.196 95.8034 278.471 96.3057C278.746 96.808 278.883 97.4193 278.883 98.1396V102.731H277.604V98.3244C277.604 97.5472 277.409 96.9549 277.021 96.5474C276.642 96.1304 276.125 95.9218 275.471 95.9218C274.798 95.9218 274.263 96.1398 273.865 96.5758C273.467 97.0023 273.268 97.6231 273.268 98.4381V102.731H271.988V98.3244C271.988 97.5472 271.794 96.9549 271.405 96.5474C271.026 96.1304 270.51 95.9218 269.856 95.9218C269.183 95.9218 268.648 96.1398 268.249 96.5758C267.851 97.0023 267.652 97.6231 267.652 98.4381V102.731H266.359V94.9409H267.652V96.064C267.908 95.6565 268.249 95.3437 268.676 95.1257C269.112 94.9078 269.591 94.7988 270.112 94.7988C270.766 94.7988 271.344 94.9457 271.846 95.2395C272.348 95.5333 272.723 95.9645 272.969 96.5331C273.187 95.9835 273.547 95.557 274.05 95.2537C274.552 94.9504 275.111 94.7988 275.727 94.7988ZM280.522 98.8078C280.522 98.0116 280.683 97.315 281.005 96.718C281.328 96.1114 281.768 95.6423 282.327 95.3105C282.896 94.9788 283.526 94.813 284.218 94.813C284.901 94.813 285.493 94.9599 285.995 95.2537C286.498 95.5475 286.872 95.9171 287.118 96.3626V94.9409H288.426V102.731H287.118V101.281C286.862 101.736 286.479 102.115 285.967 102.419C285.465 102.712 284.877 102.859 284.204 102.859C283.512 102.859 282.887 102.689 282.327 102.348C281.768 102.006 281.328 101.528 281.005 100.912C280.683 100.296 280.522 99.5944 280.522 98.8078ZM287.118 98.822C287.118 98.2344 287 97.7226 286.763 97.2866C286.526 96.8506 286.204 96.5189 285.796 96.2915C285.398 96.0545 284.957 95.9361 284.474 95.9361C283.991 95.9361 283.55 96.0498 283.152 96.2773C282.754 96.5047 282.436 96.8364 282.2 97.2724C281.963 97.7084 281.844 98.2201 281.844 98.8078C281.844 99.4048 281.963 99.9261 282.2 100.372C282.436 100.808 282.754 101.144 283.152 101.381C283.55 101.608 283.991 101.722 284.474 101.722C284.957 101.722 285.398 101.608 285.796 101.381C286.204 101.144 286.526 100.808 286.763 100.372C287 99.9261 287.118 99.4096 287.118 98.822ZM294.408 94.7988C295.356 94.7988 296.124 95.0878 296.711 95.666C297.299 96.2346 297.593 97.0591 297.593 98.1396V102.731H296.313V98.3244C296.313 97.5472 296.119 96.9549 295.73 96.5474C295.342 96.1304 294.811 95.9218 294.138 95.9218C293.456 95.9218 292.911 96.1351 292.503 96.5616C292.105 96.9881 291.906 97.6088 291.906 98.4239V102.731H290.612V94.9409H291.906V96.0498C292.162 95.6517 292.508 95.3437 292.944 95.1257C293.389 94.9078 293.877 94.7988 294.408 94.7988ZM299.223 98.822C299.223 98.0164 299.384 97.315 299.706 96.718C300.028 96.1114 300.474 95.6423 301.042 95.3105C301.62 94.9788 302.279 94.813 303.018 94.813C303.975 94.813 304.762 95.0452 305.378 95.5096C306.004 95.974 306.416 96.6184 306.615 97.443H305.222C305.089 96.9691 304.828 96.5948 304.44 96.3199C304.061 96.0451 303.587 95.9076 303.018 95.9076C302.279 95.9076 301.682 96.1635 301.227 96.6753C300.772 97.1776 300.545 97.8932 300.545 98.822C300.545 99.7602 300.772 100.485 301.227 100.997C301.682 101.509 302.279 101.765 303.018 101.765C303.587 101.765 304.061 101.632 304.44 101.367C304.819 101.101 305.08 100.722 305.222 100.229H306.615C306.406 101.025 305.989 101.665 305.364 102.149C304.738 102.622 303.957 102.859 303.018 102.859C302.279 102.859 301.62 102.694 301.042 102.362C300.474 102.03 300.028 101.561 299.706 100.954C299.384 100.348 299.223 99.637 299.223 98.822ZM315.449 98.5376C315.449 98.7841 315.435 99.0447 315.407 99.3195H309.18C309.227 100.087 309.488 100.689 309.962 101.125C310.445 101.551 311.028 101.765 311.71 101.765C312.27 101.765 312.734 101.637 313.104 101.381C313.483 101.116 313.748 100.765 313.9 100.329H315.293C315.084 101.078 314.667 101.689 314.042 102.163C313.416 102.627 312.639 102.859 311.71 102.859C310.971 102.859 310.308 102.694 309.72 102.362C309.142 102.03 308.687 101.561 308.355 100.954C308.024 100.338 307.858 99.6276 307.858 98.822C307.858 98.0164 308.019 97.3103 308.341 96.7037C308.663 96.0972 309.114 95.6328 309.692 95.3105C310.279 94.9788 310.952 94.813 311.71 94.813C312.45 94.813 313.104 94.9741 313.672 95.2963C314.241 95.6186 314.677 96.064 314.98 96.6327C315.293 97.1918 315.449 97.8268 315.449 98.5376ZM314.113 98.2675C314.113 97.7747 314.004 97.353 313.786 97.0023C313.568 96.6421 313.269 96.372 312.89 96.192C312.521 96.0024 312.108 95.9076 311.654 95.9076C311 95.9076 310.44 96.1161 309.976 96.5331C309.521 96.9502 309.26 97.5283 309.194 98.2675H314.113Z" fill="#323030"/>
<path d="M223.453 150.874C223.453 149.908 223.671 149.041 224.107 148.273C224.543 147.496 225.135 146.889 225.884 146.453C226.642 146.017 227.481 145.799 228.4 145.799C229.481 145.799 230.424 146.06 231.229 146.581C232.035 147.102 232.623 147.842 232.992 148.799H231.443C231.168 148.202 230.77 147.742 230.248 147.42C229.737 147.098 229.121 146.937 228.4 146.937C227.709 146.937 227.088 147.098 226.538 147.42C225.988 147.742 225.557 148.202 225.244 148.799C224.932 149.386 224.775 150.078 224.775 150.874C224.775 151.661 224.932 152.353 225.244 152.95C225.557 153.538 225.988 153.993 226.538 154.315C227.088 154.637 227.709 154.798 228.4 154.798C229.121 154.798 229.737 154.642 230.248 154.329C230.77 154.007 231.168 153.547 231.443 152.95H232.992C232.623 153.898 232.035 154.632 231.229 155.154C230.424 155.665 229.481 155.921 228.4 155.921C227.481 155.921 226.642 155.708 225.884 155.282C225.135 154.846 224.543 154.244 224.107 153.476C223.671 152.708 223.453 151.841 223.453 150.874ZM238.316 155.964C237.586 155.964 236.922 155.798 236.325 155.466C235.738 155.135 235.273 154.665 234.932 154.059C234.6 153.443 234.435 152.732 234.435 151.926C234.435 151.13 234.605 150.429 234.946 149.822C235.297 149.206 235.771 148.737 236.368 148.415C236.965 148.083 237.633 147.917 238.373 147.917C239.112 147.917 239.78 148.083 240.377 148.415C240.974 148.737 241.443 149.202 241.784 149.808C242.135 150.415 242.31 151.121 242.31 151.926C242.31 152.732 242.13 153.443 241.77 154.059C241.42 154.665 240.941 155.135 240.334 155.466C239.728 155.798 239.055 155.964 238.316 155.964ZM238.316 154.827C238.78 154.827 239.216 154.718 239.624 154.5C240.031 154.282 240.358 153.955 240.604 153.519C240.86 153.083 240.988 152.552 240.988 151.926C240.988 151.301 240.865 150.77 240.619 150.334C240.372 149.898 240.05 149.576 239.652 149.368C239.254 149.15 238.823 149.041 238.358 149.041C237.884 149.041 237.448 149.15 237.05 149.368C236.662 149.576 236.349 149.898 236.112 150.334C235.875 150.77 235.757 151.301 235.757 151.926C235.757 152.561 235.87 153.097 236.098 153.533C236.335 153.969 236.648 154.296 237.036 154.514C237.425 154.722 237.851 154.827 238.316 154.827ZM245.305 145.316V155.836H244.011V145.316H245.305ZM254.419 148.045V155.836H253.125V154.684C252.879 155.082 252.533 155.395 252.088 155.623C251.652 155.841 251.168 155.95 250.638 155.95C250.031 155.95 249.486 155.826 249.003 155.58C248.519 155.324 248.135 154.945 247.851 154.443C247.576 153.94 247.439 153.329 247.439 152.609V148.045H248.718V152.438C248.718 153.206 248.913 153.798 249.301 154.215C249.69 154.623 250.221 154.827 250.893 154.827C251.585 154.827 252.13 154.613 252.528 154.187C252.926 153.76 253.125 153.14 253.125 152.325V148.045H254.419ZM265.972 147.903C266.578 147.903 267.119 148.031 267.593 148.287C268.066 148.534 268.441 148.908 268.716 149.41C268.99 149.912 269.128 150.524 269.128 151.244V155.836H267.848V151.429C267.848 150.652 267.654 150.059 267.266 149.652C266.886 149.235 266.37 149.026 265.716 149.026C265.043 149.026 264.508 149.244 264.11 149.68C263.711 150.107 263.512 150.728 263.512 151.543V155.836H262.233V151.429C262.233 150.652 262.039 150.059 261.65 149.652C261.271 149.235 260.755 149.026 260.101 149.026C259.428 149.026 258.892 149.244 258.494 149.68C258.096 150.107 257.897 150.728 257.897 151.543V155.836H256.603V148.045H257.897V149.169C258.153 148.761 258.494 148.448 258.921 148.23C259.357 148.012 259.835 147.903 260.356 147.903C261.01 147.903 261.589 148.05 262.091 148.344C262.593 148.638 262.968 149.069 263.214 149.638C263.432 149.088 263.792 148.661 264.294 148.358C264.797 148.055 265.356 147.903 265.972 147.903ZM275.046 147.903C275.994 147.903 276.761 148.192 277.349 148.77C277.936 149.339 278.23 150.164 278.23 151.244V155.836H276.951V151.429C276.951 150.652 276.756 150.059 276.368 149.652C275.979 149.235 275.449 149.026 274.776 149.026C274.093 149.026 273.548 149.24 273.141 149.666C272.743 150.093 272.544 150.713 272.544 151.528V155.836H271.25V148.045H272.544V149.154C272.8 148.756 273.146 148.448 273.581 148.23C274.027 148.012 274.515 147.903 275.046 147.903Z" fill="#323030"/>
<path d="M225.419 206.436V205.455L230.409 198.546H231.958V205.313H233.38V206.436H231.958V208.725H230.679V206.436H225.419ZM230.736 199.896L226.911 205.313H230.736V199.896ZM234.672 203.479C234.672 201.849 234.938 200.579 235.468 199.669C235.999 198.75 236.928 198.29 238.255 198.29C239.572 198.29 240.496 198.75 241.027 199.669C241.558 200.579 241.823 201.849 241.823 203.479C241.823 205.137 241.558 206.426 241.027 207.346C240.496 208.265 239.572 208.725 238.255 208.725C236.928 208.725 235.999 208.265 235.468 207.346C234.938 206.426 234.672 205.137 234.672 203.479ZM240.544 203.479C240.544 202.654 240.487 201.958 240.373 201.389C240.269 200.811 240.046 200.346 239.705 199.996C239.373 199.645 238.89 199.47 238.255 199.47C237.61 199.47 237.117 199.645 236.776 199.996C236.445 200.346 236.222 200.811 236.108 201.389C236.004 201.958 235.952 202.654 235.952 203.479C235.952 204.332 236.004 205.047 236.108 205.625C236.222 206.204 236.445 206.668 236.776 207.019C237.117 207.369 237.61 207.545 238.255 207.545C238.89 207.545 239.373 207.369 239.705 207.019C240.046 206.668 240.269 206.204 240.373 205.625C240.487 205.047 240.544 204.332 240.544 203.479Z" fill="#323030"/>
<path d="M54.3541 254.348C53.7002 254.348 53.1126 254.234 52.5913 254.006C52.0795 253.769 51.6767 253.447 51.3829 253.04C51.0891 252.623 50.9375 252.144 50.928 251.604H52.307C52.3544 252.068 52.5439 252.462 52.8756 252.784C53.2168 253.097 53.7097 253.253 54.3541 253.253C54.9702 253.253 55.4535 253.101 55.8042 252.798C56.1643 252.485 56.3444 252.087 56.3444 251.604C56.3444 251.225 56.2402 250.917 56.0316 250.68C55.8231 250.443 55.5625 250.263 55.2498 250.14C54.937 250.016 54.5152 249.884 53.9845 249.741C53.3306 249.571 52.8046 249.4 52.4065 249.23C52.0179 249.059 51.6815 248.794 51.3971 248.434C51.1223 248.064 50.9849 247.571 50.9849 246.955C50.9849 246.415 51.1223 245.936 51.3971 245.519C51.672 245.102 52.0558 244.78 52.5487 244.553C53.051 244.325 53.6244 244.211 54.2688 244.211C55.1976 244.211 55.9558 244.444 56.5434 244.908C57.1405 245.372 57.477 245.988 57.5528 246.756H56.1312C56.0838 246.377 55.8847 246.045 55.5341 245.761C55.1834 245.467 54.719 245.32 54.1409 245.32C53.6007 245.32 53.16 245.462 52.8188 245.747C52.4776 246.022 52.307 246.41 52.307 246.912C52.307 247.273 52.4065 247.566 52.6055 247.794C52.814 248.021 53.0652 248.197 53.359 248.32C53.6623 248.434 54.084 248.566 54.6242 248.718C55.2782 248.898 55.8042 249.078 56.2022 249.258C56.6003 249.429 56.9415 249.699 57.2258 250.068C57.5101 250.429 57.6523 250.921 57.6523 251.547C57.6523 252.03 57.5244 252.485 57.2685 252.912C57.0126 253.338 56.6335 253.684 56.1312 253.95C55.6289 254.215 55.0365 254.348 54.3541 254.348ZM63.4229 246.315C64.0105 246.315 64.5412 246.443 65.0151 246.699C65.489 246.946 65.8586 247.32 66.124 247.822C66.3988 248.325 66.5363 248.936 66.5363 249.656V254.248H65.2568V249.841C65.2568 249.064 65.0625 248.471 64.6739 248.064C64.2853 247.647 63.7546 247.438 63.0817 247.438C62.3993 247.438 61.8544 247.652 61.4468 248.078C61.0488 248.505 60.8497 249.125 60.8497 249.941V254.248H59.5561V243.728H60.8497V247.566C61.1056 247.168 61.4563 246.86 61.9018 246.642C62.3567 246.424 62.8637 246.315 63.4229 246.315ZM72.0472 254.376C71.3174 254.376 70.654 254.21 70.0569 253.878C69.4693 253.547 69.0049 253.078 68.6637 252.471C68.332 251.855 68.1661 251.144 68.1661 250.339C68.1661 249.542 68.3367 248.841 68.6779 248.235C69.0286 247.619 69.5025 247.149 70.0995 246.827C70.6966 246.495 71.3648 246.33 72.104 246.33C72.8433 246.33 73.5115 246.495 74.1085 246.827C74.7056 247.149 75.1748 247.614 75.5159 248.22C75.8666 248.827 76.042 249.533 76.042 250.339C76.042 251.144 75.8619 251.855 75.5017 252.471C75.1511 253.078 74.6725 253.547 74.0659 253.878C73.4593 254.21 72.7864 254.376 72.0472 254.376ZM72.0472 253.239C72.5116 253.239 72.9475 253.13 73.3551 252.912C73.7626 252.694 74.0896 252.367 74.336 251.931C74.5919 251.495 74.7198 250.964 74.7198 250.339C74.7198 249.713 74.5966 249.182 74.3502 248.746C74.1038 248.31 73.7816 247.988 73.3835 247.78C72.9855 247.562 72.5542 247.453 72.0898 247.453C71.616 247.453 71.18 247.562 70.7819 247.78C70.3933 247.988 70.0806 248.31 69.8437 248.746C69.6067 249.182 69.4882 249.713 69.4882 250.339C69.4882 250.974 69.602 251.509 69.8294 251.945C70.0664 252.381 70.3791 252.708 70.7677 252.926C71.1563 253.134 71.5828 253.239 72.0472 253.239ZM88.1208 246.458L85.6898 254.248H84.3535L82.4769 248.064L80.6004 254.248H79.264L76.8188 246.458H78.141L79.9322 252.997L81.8656 246.458H83.1877L85.0785 253.011L86.8413 246.458H88.1208ZM94.4885 253.196H97.9572V254.248H93.1948V244.339H94.4885V253.196ZM106.439 250.054C106.439 250.301 106.425 250.561 106.397 250.836H100.17C100.217 251.604 100.478 252.206 100.952 252.642C101.435 253.068 102.018 253.281 102.7 253.281C103.26 253.281 103.724 253.153 104.094 252.898C104.473 252.632 104.738 252.281 104.89 251.845H106.283C106.074 252.594 105.657 253.206 105.032 253.679C104.406 254.144 103.629 254.376 102.7 254.376C101.961 254.376 101.298 254.21 100.71 253.878C100.132 253.547 99.677 253.078 99.3453 252.471C99.0136 251.855 98.8478 251.144 98.8478 250.339C98.8478 249.533 99.0089 248.827 99.3311 248.22C99.6533 247.614 100.104 247.149 100.682 246.827C101.269 246.495 101.942 246.33 102.7 246.33C103.44 246.33 104.094 246.491 104.662 246.813C105.231 247.135 105.667 247.581 105.97 248.149C106.283 248.708 106.439 249.343 106.439 250.054ZM105.103 249.784C105.103 249.291 104.994 248.87 104.776 248.519C104.558 248.159 104.259 247.889 103.88 247.709C103.511 247.519 103.098 247.424 102.643 247.424C101.99 247.424 101.43 247.633 100.966 248.05C100.511 248.467 100.25 249.045 100.184 249.784H105.103ZM111.36 246.33C112.033 246.33 112.62 246.476 113.123 246.77C113.634 247.064 114.013 247.434 114.26 247.879V246.458H115.568V254.419C115.568 255.129 115.416 255.76 115.113 256.309C114.81 256.869 114.374 257.305 113.805 257.617C113.246 257.93 112.592 258.086 111.843 258.086C110.82 258.086 109.967 257.845 109.284 257.361C108.602 256.878 108.199 256.219 108.076 255.385H109.355C109.497 255.859 109.791 256.238 110.237 256.523C110.682 256.816 111.218 256.963 111.843 256.963C112.554 256.963 113.132 256.741 113.577 256.295C114.032 255.85 114.26 255.224 114.26 254.419V252.784C114.004 253.239 113.625 253.618 113.123 253.921C112.62 254.224 112.033 254.376 111.36 254.376C110.668 254.376 110.038 254.205 109.469 253.864C108.91 253.523 108.469 253.044 108.147 252.428C107.825 251.812 107.664 251.111 107.664 250.324C107.664 249.528 107.825 248.832 108.147 248.235C108.469 247.628 108.91 247.159 109.469 246.827C110.038 246.495 110.668 246.33 111.36 246.33ZM114.26 250.339C114.26 249.751 114.141 249.239 113.904 248.803C113.668 248.367 113.345 248.036 112.938 247.808C112.54 247.571 112.099 247.453 111.616 247.453C111.132 247.453 110.692 247.566 110.294 247.794C109.895 248.021 109.578 248.353 109.341 248.789C109.104 249.225 108.986 249.737 108.986 250.324C108.986 250.921 109.104 251.443 109.341 251.888C109.578 252.324 109.895 252.661 110.294 252.898C110.692 253.125 111.132 253.239 111.616 253.239C112.099 253.239 112.54 253.125 112.938 252.898C113.345 252.661 113.668 252.324 113.904 251.888C114.141 251.443 114.26 250.926 114.26 250.339ZM124.862 250.054C124.862 250.301 124.848 250.561 124.819 250.836H118.593C118.64 251.604 118.901 252.206 119.375 252.642C119.858 253.068 120.441 253.281 121.123 253.281C121.682 253.281 122.147 253.153 122.516 252.898C122.896 252.632 123.161 252.281 123.313 251.845H124.706C124.497 252.594 124.08 253.206 123.455 253.679C122.829 254.144 122.052 254.376 121.123 254.376C120.384 254.376 119.721 254.21 119.133 253.878C118.555 253.547 118.1 253.078 117.768 252.471C117.436 251.855 117.271 251.144 117.271 250.339C117.271 249.533 117.432 248.827 117.754 248.22C118.076 247.614 118.526 247.149 119.105 246.827C119.692 246.495 120.365 246.33 121.123 246.33C121.862 246.33 122.516 246.491 123.085 246.813C123.654 247.135 124.09 247.581 124.393 248.149C124.706 248.708 124.862 249.343 124.862 250.054ZM123.526 249.784C123.526 249.291 123.417 248.87 123.199 248.519C122.981 248.159 122.682 247.889 122.303 247.709C121.934 247.519 121.521 247.424 121.066 247.424C120.412 247.424 119.853 247.633 119.389 248.05C118.934 248.467 118.673 249.045 118.607 249.784H123.526ZM130.365 246.315C131.313 246.315 132.081 246.604 132.669 247.183C133.256 247.751 133.55 248.576 133.55 249.656V254.248H132.27V249.841C132.27 249.064 132.076 248.471 131.688 248.064C131.299 247.647 130.768 247.438 130.095 247.438C129.413 247.438 128.868 247.652 128.46 248.078C128.062 248.505 127.863 249.125 127.863 249.941V254.248H126.57V246.458H127.863V247.566C128.119 247.168 128.465 246.86 128.901 246.642C129.347 246.424 129.835 246.315 130.365 246.315ZM135.18 250.324C135.18 249.528 135.341 248.832 135.663 248.235C135.985 247.628 136.426 247.159 136.985 246.827C137.554 246.495 138.189 246.33 138.89 246.33C139.497 246.33 140.061 246.472 140.582 246.756C141.103 247.031 141.501 247.396 141.776 247.851V243.728H143.084V254.248H141.776V252.784C141.52 253.248 141.141 253.632 140.639 253.935C140.137 254.229 139.549 254.376 138.876 254.376C138.184 254.376 137.554 254.205 136.985 253.864C136.426 253.523 135.985 253.044 135.663 252.428C135.341 251.812 135.18 251.111 135.18 250.324ZM141.776 250.339C141.776 249.751 141.658 249.239 141.421 248.803C141.184 248.367 140.862 248.036 140.454 247.808C140.056 247.571 139.615 247.453 139.132 247.453C138.649 247.453 138.208 247.566 137.81 247.794C137.412 248.021 137.094 248.353 136.857 248.789C136.62 249.225 136.502 249.737 136.502 250.324C136.502 250.921 136.62 251.443 136.857 251.888C137.094 252.324 137.412 252.661 137.81 252.898C138.208 253.125 138.649 253.239 139.132 253.239C139.615 253.239 140.056 253.125 140.454 252.898C140.862 252.661 141.184 252.324 141.421 251.888C141.658 251.443 141.776 250.926 141.776 250.339Z" fill="#323030"/>
<path d="M54.3541 286.482C53.7002 286.482 53.1126 286.369 52.5913 286.141C52.0795 285.904 51.6767 285.582 51.3829 285.174C51.0891 284.757 50.9375 284.279 50.928 283.739H52.307C52.3544 284.203 52.5439 284.596 52.8756 284.919C53.2168 285.231 53.7097 285.388 54.3541 285.388C54.9702 285.388 55.4535 285.236 55.8042 284.933C56.1643 284.62 56.3444 284.222 56.3444 283.739C56.3444 283.359 56.2402 283.051 56.0316 282.815C55.8231 282.578 55.5625 282.398 55.2498 282.274C54.937 282.151 54.5152 282.018 53.9845 281.876C53.3306 281.706 52.8046 281.535 52.4065 281.364C52.0179 281.194 51.6815 280.928 51.3971 280.568C51.1223 280.199 50.9849 279.706 50.9849 279.09C50.9849 278.55 51.1223 278.071 51.3971 277.654C51.672 277.237 52.0558 276.915 52.5487 276.687C53.051 276.46 53.6244 276.346 54.2688 276.346C55.1976 276.346 55.9558 276.578 56.5434 277.043C57.1405 277.507 57.477 278.123 57.5528 278.891H56.1312C56.0838 278.512 55.8847 278.18 55.5341 277.896C55.1834 277.602 54.719 277.455 54.1409 277.455C53.6007 277.455 53.16 277.597 52.8188 277.881C52.4776 278.156 52.307 278.545 52.307 279.047C52.307 279.407 52.4065 279.701 52.6055 279.929C52.814 280.156 53.0652 280.331 53.359 280.455C53.6623 280.568 54.084 280.701 54.6242 280.853C55.2782 281.033 55.8042 281.213 56.2022 281.393C56.6003 281.563 56.9415 281.834 57.2258 282.203C57.5101 282.563 57.6523 283.056 57.6523 283.682C57.6523 284.165 57.5244 284.62 57.2685 285.046C57.0126 285.473 56.6335 285.819 56.1312 286.084C55.6289 286.35 55.0365 286.482 54.3541 286.482ZM63.4229 278.45C64.0105 278.45 64.5412 278.578 65.0151 278.834C65.489 279.08 65.8586 279.455 66.124 279.957C66.3988 280.459 66.5363 281.071 66.5363 281.791V286.383H65.2568V281.976C65.2568 281.199 65.0625 280.606 64.6739 280.199C64.2853 279.782 63.7546 279.573 63.0817 279.573C62.3993 279.573 61.8544 279.786 61.4468 280.213C61.0488 280.639 60.8497 281.26 60.8497 282.075V286.383H59.5561V275.863H60.8497V279.701C61.1056 279.303 61.4563 278.995 61.9018 278.777C62.3567 278.559 62.8637 278.45 63.4229 278.45ZM72.0472 286.511C71.3174 286.511 70.654 286.345 70.0569 286.013C69.4693 285.681 69.0049 285.212 68.6637 284.606C68.332 283.99 68.1661 283.279 68.1661 282.473C68.1661 281.677 68.3367 280.976 68.6779 280.369C69.0286 279.753 69.5025 279.284 70.0995 278.962C70.6966 278.63 71.3648 278.464 72.104 278.464C72.8433 278.464 73.5115 278.63 74.1085 278.962C74.7056 279.284 75.1748 279.749 75.5159 280.355C75.8666 280.962 76.042 281.668 76.042 282.473C76.042 283.279 75.8619 283.99 75.5017 284.606C75.1511 285.212 74.6725 285.681 74.0659 286.013C73.4593 286.345 72.7864 286.511 72.0472 286.511ZM72.0472 285.373C72.5116 285.373 72.9475 285.264 73.3551 285.046C73.7626 284.828 74.0896 284.502 74.336 284.066C74.5919 283.63 74.7198 283.099 74.7198 282.473C74.7198 281.848 74.5966 281.317 74.3502 280.881C74.1038 280.445 73.7816 280.123 73.3835 279.914C72.9855 279.696 72.5542 279.587 72.0898 279.587C71.616 279.587 71.18 279.696 70.7819 279.914C70.3933 280.123 70.0806 280.445 69.8437 280.881C69.6067 281.317 69.4882 281.848 69.4882 282.473C69.4882 283.108 69.602 283.644 69.8294 284.08C70.0664 284.516 70.3791 284.843 70.7677 285.061C71.1563 285.269 71.5828 285.373 72.0472 285.373ZM88.1208 278.592L85.6898 286.383H84.3535L82.4769 280.199L80.6004 286.383H79.264L76.8188 278.592H78.141L79.9322 285.132L81.8656 278.592H83.1877L85.0785 285.146L86.8413 278.592H88.1208ZM92.7114 282.459C92.7114 281.663 92.8725 280.966 93.1948 280.369C93.517 279.763 93.9577 279.294 94.5169 278.962C95.0855 278.63 95.7158 278.464 96.4077 278.464C97.09 278.464 97.6824 278.611 98.1847 278.905C98.687 279.199 99.0614 279.568 99.3078 280.014V278.592H100.616V286.383H99.3078V284.933C99.0519 285.388 98.668 285.767 98.1563 286.07C97.654 286.364 97.0663 286.511 96.3934 286.511C95.7016 286.511 95.0761 286.34 94.5169 285.999C93.9577 285.658 93.517 285.179 93.1948 284.563C92.8725 283.947 92.7114 283.246 92.7114 282.459ZM99.3078 282.473C99.3078 281.886 99.1893 281.374 98.9524 280.938C98.7154 280.502 98.3932 280.17 97.9857 279.943C97.5876 279.706 97.1469 279.587 96.6636 279.587C96.1802 279.587 95.7395 279.701 95.3414 279.929C94.9434 280.156 94.6259 280.488 94.3889 280.924C94.152 281.36 94.0335 281.872 94.0335 282.459C94.0335 283.056 94.152 283.577 94.3889 284.023C94.6259 284.459 94.9434 284.795 95.3414 285.032C95.7395 285.26 96.1802 285.373 96.6636 285.373C97.1469 285.373 97.5876 285.26 97.9857 285.032C98.3932 284.795 98.7154 284.459 98.9524 284.023C99.1893 283.577 99.3078 283.061 99.3078 282.473ZM105.56 286.511C104.963 286.511 104.427 286.411 103.953 286.212C103.48 286.004 103.105 285.719 102.83 285.359C102.555 284.99 102.404 284.568 102.375 284.094H103.712C103.75 284.483 103.93 284.8 104.252 285.046C104.584 285.293 105.015 285.416 105.546 285.416C106.038 285.416 106.427 285.307 106.711 285.089C106.996 284.871 107.138 284.596 107.138 284.265C107.138 283.923 106.986 283.672 106.683 283.511C106.38 283.341 105.911 283.175 105.276 283.014C104.697 282.862 104.224 282.71 103.854 282.559C103.494 282.398 103.181 282.165 102.916 281.862C102.66 281.549 102.532 281.142 102.532 280.639C102.532 280.241 102.65 279.876 102.887 279.545C103.124 279.213 103.461 278.952 103.897 278.763C104.332 278.564 104.83 278.464 105.389 278.464C106.252 278.464 106.948 278.682 107.479 279.118C108.01 279.554 108.294 280.151 108.332 280.91H107.038C107.01 280.502 106.844 280.175 106.541 279.929C106.247 279.682 105.849 279.559 105.347 279.559C104.882 279.559 104.513 279.659 104.238 279.858C103.963 280.057 103.825 280.317 103.825 280.639C103.825 280.895 103.906 281.109 104.067 281.279C104.238 281.44 104.446 281.573 104.693 281.677C104.949 281.772 105.299 281.881 105.745 282.004C106.304 282.156 106.759 282.307 107.109 282.459C107.46 282.601 107.759 282.819 108.005 283.113C108.261 283.407 108.394 283.791 108.403 284.265C108.403 284.691 108.285 285.075 108.048 285.416C107.811 285.757 107.474 286.027 107.038 286.226C106.612 286.416 106.119 286.511 105.56 286.511ZM113.778 278.692C113.844 277.82 114.181 277.137 114.787 276.645C115.394 276.152 116.18 275.905 117.147 275.905C117.791 275.905 118.346 276.024 118.81 276.261C119.284 276.488 119.64 276.801 119.877 277.199C120.123 277.597 120.246 278.047 120.246 278.55C120.246 279.137 120.076 279.644 119.734 280.071C119.403 280.497 118.967 280.772 118.426 280.895V280.966C119.042 281.118 119.531 281.417 119.891 281.862C120.251 282.307 120.431 282.89 120.431 283.611C120.431 284.151 120.308 284.639 120.061 285.075C119.815 285.501 119.445 285.838 118.952 286.084C118.46 286.331 117.867 286.454 117.175 286.454C116.171 286.454 115.346 286.193 114.702 285.672C114.057 285.141 113.697 284.393 113.621 283.426H114.872C114.939 283.994 115.171 284.459 115.569 284.819C115.967 285.179 116.498 285.359 117.161 285.359C117.825 285.359 118.327 285.189 118.668 284.847C119.019 284.497 119.194 284.047 119.194 283.497C119.194 282.786 118.957 282.274 118.483 281.962C118.009 281.649 117.294 281.492 116.337 281.492H116.01V280.412H116.351C117.223 280.402 117.881 280.26 118.327 279.985C118.772 279.701 118.995 279.265 118.995 278.678C118.995 278.175 118.829 277.772 118.498 277.469C118.175 277.166 117.711 277.014 117.104 277.014C116.517 277.014 116.043 277.166 115.683 277.469C115.323 277.772 115.109 278.18 115.043 278.692H113.778ZM125.476 276.474C126.556 276.474 127.49 276.678 128.276 277.085C129.073 277.483 129.679 278.057 130.096 278.806C130.523 279.554 130.736 280.436 130.736 281.45C130.736 282.464 130.523 283.345 130.096 284.094C129.679 284.833 129.073 285.402 128.276 285.8C127.49 286.189 126.556 286.383 125.476 286.383H122.391V276.474H125.476ZM125.476 285.317C126.755 285.317 127.731 284.98 128.404 284.307C129.077 283.625 129.414 282.672 129.414 281.45C129.414 280.218 129.073 279.256 128.39 278.564C127.717 277.872 126.746 277.526 125.476 277.526H123.685V285.317H125.476Z" fill="#323030"/>
<path d="M234.558 246.574L226.524 254.608L222.842 250.925L223.786 249.981L226.524 252.713L233.614 245.63L234.558 246.574Z" fill="white"/>
</g>
<defs>
<filter id="filter0_d" x="0" y="0" width="641.857" height="358" filterUnits="userSpaceOnUse" color-interpolation-filters="sRGB">
<feFlood flood-opacity="0" result="BackgroundImageFix"/>
<feColorMatrix in="SourceAlpha" type="matrix" values="0 0 0 0 0 0 0 0 0 0 0 0 0 0 0 0 0 0 127 0" result="hardAlpha"/>
<feOffset dx="-2" dy="4"/>
<feGaussianBlur stdDeviation="10"/>
<feComposite in2="hardAlpha" operator="out"/>
<feColorMatrix type="matrix" values="0 0 0 0 0 0 0 0 0 0 0 0 0 0 0 0 0 0 0.25 0"/>
<feBlend mode="normal" in2="BackgroundImageFix" result="effect1_dropShadow"/>
<feBlend mode="normal" in="SourceGraphic" in2="effect1_dropShadow" result="shape"/>
</filter>
<filter id="filter1_d" x="21.2892" y="15.5938" width="604.294" height="43.9444" filterUnits="userSpaceOnUse" color-interpolation-filters="sRGB">
<feFlood flood-opacity="0" result="BackgroundImageFix"/>
<feColorMatrix in="SourceAlpha" type="matrix" values="0 0 0 0 0 0 0 0 0 0 0 0 0 0 0 0 0 0 127 0" result="hardAlpha"/>
<feOffset dx="0.507724" dy="0.812359"/>
<feGaussianBlur stdDeviation="0.609269"/>
<feColorMatrix type="matrix" values="0 0 0 0 0 0 0 0 0 0 0 0 0 0 0 0 0 0 0.25 0"/>
<feBlend mode="normal" in2="BackgroundImageFix" result="effect1_dropShadow"/>
<feBlend mode="normal" in="SourceGraphic" in2="effect1_dropShadow" result="shape"/>
</filter>
<filter id="filter2_d" x="217.648" y="80.0664" width="287.227" height="37.513" filterUnits="userSpaceOnUse" color-interpolation-filters="sRGB">
<feFlood flood-opacity="0" result="BackgroundImageFix"/>
<feColorMatrix in="SourceAlpha" type="matrix" values="0 0 0 0 0 0 0 0 0 0 0 0 0 0 0 0 0 0 127 0" result="hardAlpha"/>
<feOffset dx="0.507724" dy="0.812359"/>
<feGaussianBlur stdDeviation="0.507724"/>
<feColorMatrix type="matrix" values="0 0 0 0 0 0 0 0 0 0 0 0 0 0 0 0 0 0 0.2 0"/>
<feBlend mode="normal" in2="BackgroundImageFix" result="effect1_dropShadow"/>
<feBlend mode="normal" in="SourceGraphic" in2="effect1_dropShadow" result="shape"/>
</filter>
<filter id="filter3_d" x="217.648" y="132.955" width="144.629" height="37.513" filterUnits="userSpaceOnUse" color-interpolation-filters="sRGB">
<feFlood flood-opacity="0" result="BackgroundImageFix"/>
<feColorMatrix in="SourceAlpha" type="matrix" values="0 0 0 0 0 0 0 0 0 0 0 0 0 0 0 0 0 0 127 0" result="hardAlpha"/>
<feOffset dx="0.507724" dy="0.812359"/>
<feGaussianBlur stdDeviation="0.507724"/>
<feColorMatrix type="matrix" values="0 0 0 0 0 0 0 0 0 0 0 0 0 0 0 0 0 0 0.2 0"/>
<feBlend mode="normal" in2="BackgroundImageFix" result="effect1_dropShadow"/>
<feBlend mode="normal" in="SourceGraphic" in2="effect1_dropShadow" result="shape"/>
</filter>
<filter id="filter4_d" x="217.648" y="187.183" width="144.629" height="37.513" filterUnits="userSpaceOnUse" color-interpolation-filters="sRGB">
<feFlood flood-opacity="0" result="BackgroundImageFix"/>
<feColorMatrix in="SourceAlpha" type="matrix" values="0 0 0 0 0 0 0 0 0 0 0 0 0 0 0 0 0 0 127 0" result="hardAlpha"/>
<feOffset dx="0.507724" dy="0.812359"/>
<feGaussianBlur stdDeviation="0.507724"/>
<feColorMatrix type="matrix" values="0 0 0 0 0 0 0 0 0 0 0 0 0 0 0 0 0 0 0.2 0"/>
<feBlend mode="normal" in2="BackgroundImageFix" result="effect1_dropShadow"/>
<feBlend mode="normal" in="SourceGraphic" in2="effect1_dropShadow" result="shape"/>
</filter>
<filter id="filter5_d" x="518.815" y="79.892" width="72.4744" height="36.9923" filterUnits="userSpaceOnUse" color-interpolation-filters="sRGB">
<feFlood flood-opacity="0" result="BackgroundImageFix"/>
<feColorMatrix in="SourceAlpha" type="matrix" values="0 0 0 0 0 0 0 0 0 0 0 0 0 0 0 0 0 0 127 0" result="hardAlpha"/>
<feOffset dx="0.151015" dy="0.377539"/>
<feGaussianBlur stdDeviation="0.377539"/>
<feColorMatrix type="matrix" values="0 0 0 0 0 0 0 0 0 0 0 0 0 0 0 0 0 0 0.2 0"/>
<feBlend mode="normal" in2="BackgroundImageFix" result="effect1_dropShadow"/>
<feBlend mode="normal" in="SourceGraphic" in2="effect1_dropShadow" result="shape"/>
</filter>
<filter id="filter6_d" x="218.223" y="271.806" width="20.7537" height="20.7537" filterUnits="userSpaceOnUse" color-interpolation-filters="sRGB">
<feFlood flood-opacity="0" result="BackgroundImageFix"/>
<feColorMatrix in="SourceAlpha" type="matrix" values="0 0 0 0 0 0 0 0 0 0 0 0 0 0 0 0 0 0 127 0" result="hardAlpha"/>
<feOffset dx="0.0669474" dy="0.0669474"/>
<feGaussianBlur stdDeviation="0.334737"/>
<feColorMatrix type="matrix" values="0 0 0 0 0 0 0 0 0 0 0 0 0 0 0 0 0 0 0.25 0"/>
<feBlend mode="normal" in2="BackgroundImageFix" result="effect1_dropShadow"/>
<feBlend mode="normal" in="SourceGraphic" in2="effect1_dropShadow" result="shape"/>
</filter>
<filter id="filter7_d" x="218.223" y="240.341" width="20.7537" height="20.7537" filterUnits="userSpaceOnUse" color-interpolation-filters="sRGB">
<feFlood flood-opacity="0" result="BackgroundImageFix"/>
<feColorMatrix in="SourceAlpha" type="matrix" values="0 0 0 0 0 0 0 0 0 0 0 0 0 0 0 0 0 0 127 0" result="hardAlpha"/>
<feOffset dx="0.0669474" dy="0.0669474"/>
<feGaussianBlur stdDeviation="0.334737"/>
<feColorMatrix type="matrix" values="0 0 0 0 0 0 0 0 0 0 0 0 0 0 0 0 0 0 0.25 0"/>
<feBlend mode="normal" in2="BackgroundImageFix" result="effect1_dropShadow"/>
<feBlend mode="normal" in="SourceGraphic" in2="effect1_dropShadow" result="shape"/>
</filter>
</defs>
</svg>
